<?xml version="1.0" encoding="utf-8"?>
<!-- Generator: Adobe Illustrator 25.0.0, SVG Export Plug-In . SVG Version: 6.00 Build 0)  -->
<svg version="1.1" id="图层_1" xmlns="http://www.w3.org/2000/svg" xmlns:xlink="http://www.w3.org/1999/xlink" x="0px" y="0px"
	 viewBox="0 0 260 66" style="enable-background:new 0 0 260 66;" xml:space="preserve">
<style type="text/css">
	.st0{fill:#E60000;}
	.st1{fill:#004487;}
	.st2{fill:#999999;}
</style>
<g>
	<path d="M0.68,33.22c0.04-1.92,0.21-3.81,0.54-5.7c0.37-2.16,0.97-4.25,1.77-6.29c0.93-2.36,2.12-4.58,3.56-6.66
		c1.09-1.59,2.32-3.06,3.68-4.42C12,8.37,13.95,6.8,16.09,5.47c1.29-0.81,2.63-1.54,4.02-2.16c2.23-0.99,4.54-1.72,6.93-2.19
		c2.76-0.54,5.55-0.72,8.36-0.56c1.89,0.11,3.76,0.4,5.61,0.85c2.16,0.52,4.23,1.25,6.24,2.19c3.38,1.58,6.37,3.71,9.03,6.32
		c1.49,1.47,2.83,3.06,4.01,4.79c1.38,2.03,2.52,4.17,3.43,6.45c0.93,2.33,1.58,4.74,1.94,7.22c0.33,2.22,0.43,4.45,0.3,6.69
		c-0.07,1.26-0.19,2.52-0.41,3.76c-0.24,1.35-0.56,2.68-0.95,4c-0.67,2.26-1.61,4.4-2.75,6.46c-0.81,1.46-1.75,2.85-2.78,4.17
		c-1.03,1.31-2.15,2.53-3.35,3.67c-1.09,1.03-2.25,1.97-3.46,2.84c-1.52,1.09-3.12,2.04-4.81,2.85c-1.54,0.74-3.12,1.34-4.75,1.83
		c-1.3,0.39-2.62,0.7-3.96,0.93c-1.64,0.28-3.29,0.41-4.96,0.42c-2.24,0.02-4.47-0.16-6.67-0.6c-1.85-0.37-3.65-0.88-5.41-1.56
		c-1.51-0.59-2.98-1.26-4.39-2.07c-1.99-1.15-3.86-2.46-5.57-4c-1.05-0.95-2.06-1.93-2.98-3.01c-1.26-1.47-2.4-3.02-3.39-4.69
		c-1.09-1.83-2.01-3.75-2.73-5.75c-0.86-2.42-1.46-4.92-1.7-7.49C0.81,35.63,0.76,34.43,0.68,33.22z M33.08,1.26
		C15.7,1.33,1.26,15.73,1.47,33.65c0.2,17.33,14.33,31.78,32.25,31.61C51.16,65.1,65.6,50.73,65.27,32.59
		C64.94,15.25,50.7,1.07,33.08,1.26z"/>
	<path d="M33.38,8.57C46.96,8.54,58.13,19.7,57.97,33.54c-0.15,13.55-11.2,24.5-24.8,24.41C19.62,57.85,8.61,46.69,8.76,32.99
		C8.9,19.43,19.91,8.54,33.38,8.57z M9.19,32.58c0,3.03,0.33,5.33,1,7.58c0.5,1.69,1.18,3.3,2.02,4.85c0.82,1.5,1.82,2.87,2.92,4.17
		c1.55,1.81,3.34,3.32,5.34,4.6c1.49,0.95,3.06,1.71,4.72,2.31c1.57,0.57,3.18,0.97,4.82,1.19c2.97,0.4,5.91,0.28,8.83-0.4
		c1.61-0.38,3.17-0.91,4.66-1.6c1.65-0.76,3.18-1.71,4.62-2.82c1.34-1.04,2.55-2.2,3.65-3.49c1.58-1.86,2.84-3.92,3.81-6.17
		c0.82-1.9,1.37-3.88,1.68-5.92c0.22-1.41,0.29-2.84,0.26-4.27c-0.06-2.25-0.41-4.46-1.08-6.6c-0.81-2.58-2.02-4.97-3.63-7.15
		c-1.42-1.93-3.09-3.6-4.98-5.04c-1.62-1.23-3.39-2.23-5.28-3c-1.98-0.81-4.03-1.37-6.15-1.63c-2.16-0.26-4.32-0.25-6.48,0.06
		c-2.4,0.34-4.69,1.03-6.87,2.06c-1.77,0.83-3.41,1.87-4.92,3.11c-1.43,1.17-2.72,2.47-3.85,3.94c-0.92,1.2-1.74,2.46-2.42,3.81
		c-0.53,1.06-1.02,2.13-1.39,3.25C9.63,27.96,9.16,30.57,9.19,32.58z"/>
	<path d="M58.05,22.86c-0.35-0.34-0.68-0.6-1.14-0.65c-0.32-0.04-0.55-0.54-0.34-0.77c0.06-0.07,0.24-0.1,0.32-0.06
		c0.17,0.08,0.31,0.21,0.47,0.33c0.35,0.27,0.69,0.54,1.04,0.81c0.08,0.06,0.19,0.1,0.3,0.16c0.04-0.06,0.08-0.1,0.09-0.15
		c0.11-0.39,0.36-0.46,0.64-0.18c0.27,0.26,0.56,0.49,0.9,0.63c0.19,0.08,0.39,0.22,0.62,0.13c-0.13-0.47-0.54-0.83-1.01-0.9
		c-0.79-0.13-1.54-0.38-2.27-0.7c-0.27-0.12-0.33-0.27-0.24-0.52c0.11-0.28,0.31-0.39,0.58-0.29c0.14,0.05,0.27,0.14,0.4,0.21
		c0.23,0.13,0.45,0.23,0.74,0.22c0.2,0,0.39,0.1,0.59,0.16c0.11,0.03,0.22,0.07,0.34,0.1c0.01-0.03,0.02-0.05,0.04-0.08
		c-0.12-0.07-0.25-0.13-0.37-0.21c-0.26-0.18-0.28-0.41-0.02-0.61c0.2-0.16,0.42-0.29,0.64-0.45c0.31,0.2,0.1,0.55,0.19,0.83
		c0.57-0.15,0.54-0.79,0.91-1.12c0.25,0.23,0.22,0.5,0.22,0.75c0,0.56,0.22,0.7,0.73,0.45c0.03-0.02,0.08-0.02,0.11-0.03
		c0.03,0.02,0.07,0.03,0.07,0.05c0.07,0.19,0.18,0.4,0.01,0.58c-0.18,0.18-0.39,0.04-0.58-0.02c-0.08-0.03-0.17-0.06-0.29-0.04
		c0.04,0.05,0.07,0.12,0.12,0.16c0.28,0.2,0.57,0.38,0.85,0.57c0.09,0.06,0.19,0.12,0.26,0.2c0.06,0.08,0.12,0.22,0.08,0.28
		c-0.05,0.09-0.18,0.17-0.28,0.17c-0.34,0.01-0.68-0.01-1.02-0.01c-0.05,0-0.11,0.01-0.21,0.01c0.03,0.13,0.05,0.24,0.07,0.36
		c0.08,0.37-0.11,0.56-0.48,0.47c-0.19-0.05-0.38-0.15-0.55-0.27c-0.2-0.14-0.38-0.16-0.61-0.11c-0.18,0.04-0.38-0.04-0.61-0.08
		c0.03,0.08,0.06,0.15,0.09,0.23c0.06,0.12,0.14,0.23,0.17,0.36c0.04,0.19-0.03,0.35-0.21,0.45s-0.33,0.03-0.45-0.09
		c-0.12-0.13-0.21-0.28-0.29-0.43c-0.12-0.21-0.18-0.23-0.39-0.13c-0.22,0.11-0.43,0.24-0.65,0.35c-0.13,0.07-0.28,0.13-0.42,0.16
		c-0.42,0.07-0.72-0.26-0.59-0.66c0.09-0.26,0.11-0.5,0.05-0.77c-0.02-0.09,0.02-0.2,0.03-0.32c0.25,0.09,0.32,0.24,0.33,0.43
		c0.01,0.1,0,0.21,0.04,0.28c0.05,0.08,0.18,0.18,0.23,0.16C57.52,23.15,57.8,23.12,58.05,22.86z M60.31,21.96
		c-0.15-0.29-0.45-0.3-0.7-0.39c-0.54-0.18-0.55-0.17-0.79-0.09C59.33,21.61,59.75,21.99,60.31,21.96z M62.27,22.43
		c-0.23-0.34-0.39-0.33-0.57,0C61.89,22.43,62.07,22.43,62.27,22.43z"/>
	<path d="M27.97,8.91c-0.28-0.08-0.29-0.31-0.32-0.52c-0.09-0.64-0.18-1.28-0.27-1.91c-0.01-0.06-0.04-0.12-0.07-0.22
		c-0.17,0.1-0.31,0.21-0.47,0.27c-0.15,0.05-0.31,0.05-0.54,0.09C26.27,6.71,26.19,6.85,26.15,7c-0.13,0.5-0.13,0.5-0.67,0.45
		c0,0.09,0,0.18,0,0.27c0,0.04,0.01,0.08,0.01,0.12c0,0.3-0.19,0.55-0.43,0.56c-0.22,0.02-0.48-0.24-0.5-0.51
		c-0.01-0.13,0.03-0.27,0.03-0.41c0-0.3-0.01-0.59-0.01-0.92c-0.19,0-0.32,0.01-0.45,0c-0.24-0.01-0.33-0.19-0.21-0.4
		c0.01-0.02,0.03-0.05,0.05-0.07c0.57-0.52,0.72-1.24,0.95-1.93c0.04-0.12,0.05-0.24,0.09-0.36c0.11-0.32,0.13-0.62-0.11-0.89
		c-0.04-0.05-0.05-0.12-0.08-0.18c0.1-0.18,0.27-0.19,0.43-0.18c0.15,0,0.3,0.03,0.45,0.02c0.22-0.02,0.34,0.09,0.4,0.27
		C26.22,3.2,26.25,3.56,26,3.9c-0.37,0.49-0.73,0.99-1.1,1.49c-0.08,0.1-0.14,0.22-0.17,0.35c0.28-0.09,0.41-0.33,0.59-0.52
		c0.12-0.13,0.23-0.27,0.37-0.38c0.19-0.14,0.38-0.06,0.43,0.17c0.06,0.24-0.04,0.85-0.19,1.08c0.03,0.05,0.07,0.1,0.11,0.15
		c0.03,0.04,0.07,0.09,0.11,0.13c0.05-0.04,0.08-0.07,0.11-0.09c0.1-0.08,0.2-0.17,0.32-0.23c0.1-0.05,0.22-0.06,0.32-0.1
		c0.26-0.1,0.3-0.23,0.16-0.47c-0.03-0.04-0.06-0.09-0.1-0.15c0.06-0.1,0.12-0.2,0.19-0.3c-0.63-0.24-0.63-0.24-0.56-0.61
		c0.47-0.17,0.86-0.46,1.17-0.86C27.87,3.41,28,3.31,28.21,3.4c0.31,0.13,0.37,0.36,0.14,0.61c-0.05,0.05-0.1,0.1-0.16,0.13
		c-0.34,0.18-0.55,0.48-0.76,0.83c0.22,0.07,0.4,0,0.58-0.11c0.14-0.08,0.28-0.17,0.43-0.22c0.3-0.1,0.49,0.03,0.47,0.35
		c-0.01,0.34-0.11,0.68-0.36,0.9c-0.39,0.34-0.42,0.71-0.3,1.17c0.09,0.39,0.1,0.81,0.1,1.22C28.36,8.54,28.21,8.76,27.97,8.91z
		 M25.55,6.46c-0.36-0.33-0.41-0.33-0.59-0.04C25.24,6.65,25.24,6.65,25.55,6.46z M25.34,7.12c0.05,0.01,0.1,0.03,0.15,0.04
		c0.01-0.09,0.02-0.18,0.02-0.27c0-0.01-0.1-0.03-0.1-0.03C25.39,6.95,25.37,7.03,25.34,7.12z"/>
	<path d="M10.36,19.72c0.1-0.7,0.1-0.71-0.31-0.9C10.03,18.9,10,18.97,10,19.04c0,0.09,0.04,0.19,0.04,0.28
		c-0.02,0.67-0.01,1.34-0.1,2c-0.04,0.29-0.25,0.57-0.41,0.84c-0.28,0.48-0.44,0.97-0.34,1.53c0.05,0.3-0.11,0.49-0.35,0.64
		c-0.25,0.15-0.49,0.11-0.67-0.1c-0.18-0.21-0.35-0.45-0.48-0.71c-0.28-0.58-0.53-1.17-0.8-1.76c-0.02-0.05-0.05-0.1-0.06-0.15
		c-0.03-0.13-0.11-0.3,0.06-0.36c0.11-0.04,0.28-0.01,0.38,0.06c0.19,0.13,0.36,0.28,0.43,0.53c0.07,0.28,0.17,0.55,0.28,0.82
		c0.05,0.13,0.14,0.25,0.25,0.43c0.12-0.12,0.23-0.19,0.27-0.29c0.14-0.35,0.28-0.71,0.38-1.08C8.95,21.46,8.86,21.2,8.67,21
		c-0.44-0.49-0.88-0.97-1.33-1.46c-0.36-0.4-0.68-0.83-0.89-1.32c-0.06-0.15-0.1-0.32-0.09-0.48c0.03-0.39,0.44-0.6,0.75-0.36
		c0.25,0.19,0.46,0.43,0.64,0.69c0.37,0.53,0.7,1.08,1.05,1.62c0.06,0.1,0.14,0.18,0.27,0.35c0.08-0.27,0.13-0.45,0.17-0.63
		c0.08-0.33,0.15-0.67,0.23-1c0.08-0.35,0.37-0.42,0.66-0.45c0.28-0.04,0.52,0.06,0.65,0.33c0.1,0.21,0.21,0.42,0.28,0.64
		c0.08,0.26,0.03,0.52-0.17,0.72C10.75,19.78,10.59,19.87,10.36,19.72z"/>
	<path d="M17.03,13.35c0.07-0.13,0.09-0.2,0.12-0.25c0.24-0.31,0.24-0.32,0-0.62c-0.09-0.12-0.2-0.23-0.3-0.34
		c-0.03-0.03-0.07-0.04-0.13-0.08c-0.03,0.08-0.05,0.15-0.08,0.22c-0.11,0.19-0.19,0.4-0.34,0.55c-0.22,0.24-0.46,0.21-0.57-0.1
		c-0.12-0.33-0.17-0.69-0.23-1.04c-0.03-0.15-0.04-0.31-0.06-0.49c-0.23,0.05-0.19,0.23-0.24,0.34c-0.06,0.14-0.09,0.29-0.17,0.41
		c-0.14,0.21-0.31,0.23-0.53,0.11c-0.14-0.08-0.29-0.15-0.43-0.23c-0.2-0.11-0.22-0.23-0.05-0.38c0.09-0.08,0.21-0.13,0.31-0.2
		c0.16-0.11,0.33-0.2,0.46-0.34c0.35-0.34,0.5-0.73,0.36-1.23c-0.14-0.49-0.26-0.98-0.36-1.47c-0.04-0.18-0.02-0.39,0.03-0.56
		c0.1-0.34,0.39-0.4,0.63-0.14c0.23,0.25,0.38,0.53,0.32,0.89c-0.04,0.25-0.04,0.51,0.02,0.79c0.29-0.03,0.33-0.26,0.42-0.42
		c0.11-0.19,0.17-0.38-0.07-0.53C16.08,8.2,16.08,8.08,16.05,8c0.08-0.02,0.15-0.05,0.23-0.04c0.1,0,0.21,0.04,0.32,0.05
		c0.3,0.04,0.39,0.15,0.26,0.43c-0.16,0.37-0.34,0.75-0.56,1.09c-0.2,0.31-0.32,0.63-0.31,1c0.01,0.33,0.01,0.66,0.02,0.99
		c0,0.07,0.05,0.14,0.09,0.25c0.23-0.23,0.37-0.44,0.3-0.74c-0.04-0.19-0.1-0.37-0.14-0.56c-0.07-0.39,0.22-0.78,0.61-0.83
		c0.23-0.03,0.44,0.13,0.44,0.38c0,0.19-0.04,0.38-0.08,0.57c-0.05,0.25-0.04,0.49,0.11,0.71c0.3,0.42,0.61,0.84,0.9,1.27
		c0.09,0.13,0.17,0.3,0.16,0.44c-0.03,0.35-0.24,0.47-0.59,0.41c-0.12-0.02-0.24-0.02-0.37-0.03
		C17.34,13.39,17.22,13.37,17.03,13.35z"/>
	<path d="M48.31,12.15c0.39,0.28,0.72,0.65,1.25,0.55c0.28-0.05,0.55-0.22,0.79-0.53c-0.1-0.03-0.18-0.08-0.26-0.07
		c-0.12,0.01-0.24,0.05-0.36,0.07c-0.4,0.09-0.64-0.07-0.63-0.46c0-0.27-0.07-0.58,0.17-0.87c0.13,0.12,0.24,0.22,0.36,0.32
		c0.18,0.14,0.35,0.32,0.55,0.41c0.81,0.36,0.95,0.15,1.38-0.27c0.2-0.2,0.41-0.4,0.62-0.6c0.42-0.38,0.8-0.79,0.92-1.37
		c0.03-0.14,0.05-0.37,0.28-0.34c0.2,0.02,0.23,0.22,0.25,0.38c0.04,0.31,0.08,0.63,0.06,0.94c-0.01,0.16-0.09,0.36-0.21,0.46
		c-0.33,0.28-0.7,0.53-1.05,0.78c-0.17,0.12-0.35,0.21-0.44,0.41c0.34,0.23,0.65,0.23,0.91-0.04c0.14-0.14,0.26-0.13,0.39-0.02
		c0.14,0.13,0.29,0.25,0.42,0.39c0.15,0.17,0.09,0.36-0.13,0.4c-0.19,0.03-0.38,0.03-0.57,0c-0.45-0.07-0.9-0.14-1.34-0.24
		c-0.28-0.07-0.5-0.01-0.71,0.18c-0.46,0.41-1.02,0.57-1.62,0.62c-0.29,0.03-0.54-0.05-0.71-0.31c-0.1-0.15-0.24-0.26-0.35-0.4
		C48.19,12.43,48.14,12.31,48.31,12.15z"/>
	<path d="M38.33,7.3c-0.24,0.09-0.46,0.18-0.69,0.25c-0.16,0.05-0.34,0.17-0.49-0.02c-0.11-0.14-0.08-0.41,0.11-0.56
		c0.28-0.23,0.5-0.53,0.93-0.53c0.27,0,0.53-0.13,0.73-0.36c-0.06-0.25-0.21-0.19-0.37-0.11c-0.28,0.13-0.46,0.08-0.6-0.13
		c-0.04-0.05-0.08-0.16-0.06-0.18c0.16-0.18,0.31-0.37,0.5-0.52c0.07-0.05,0.23,0,0.34,0.04c0.34,0.15,0.45,0.12,0.5-0.24
		c0.04-0.32,0.21-0.49,0.5-0.57c0.16-0.04,0.29,0,0.33,0.16c0.05,0.26,0.23,0.35,0.43,0.45c0.27,0.13,0.29,0.25,0.1,0.47
		c-0.07,0.08-0.16,0.15-0.24,0.22c-0.2,0.16-0.34,0.32-0.15,0.59c0.09,0.14,0.05,0.3-0.08,0.41C39.94,6.79,39.78,6.93,39.6,7
		c-0.22,0.09-0.32,0.23-0.38,0.44C39.11,7.81,39,8.18,38.89,8.55c-0.04,0.13-0.11,0.29-0.27,0.27c-0.15-0.02-0.31-0.09-0.43-0.18
		c-0.06-0.04-0.08-0.17-0.1-0.26C38.05,8.17,38.03,7.95,38,7.72C38.05,7.56,38.41,7.66,38.33,7.3z M38.49,6.84
		c-0.01-0.03-0.01-0.07-0.02-0.1c-0.09,0.02-0.17,0.03-0.26,0.05c0.05,0.09,0.09,0.11,0.14,0.11C38.4,6.89,38.44,6.86,38.49,6.84z"
		/>
	<path d="M36.6,60.39c-0.04,0.13-0.09,0.27-0.13,0.4c-0.16,0.59-0.32,1.19-0.47,1.79c-0.01,0.03,0,0.06-0.02,0.08
		c-0.09,0.1-0.16,0.23-0.27,0.27c-0.16,0.06-0.24-0.09-0.3-0.22c-0.19-0.43-0.37-0.86-0.55-1.29c-0.1-0.23-0.18-0.46-0.28-0.69
		c-0.03-0.08-0.09-0.15-0.18-0.31c0,0.43-0.01,0.76,0,1.1c0.01,0.4,0.05,0.79,0.07,1.19c0.01,0.14,0.01,0.3-0.18,0.31
		c-0.18,0.01-0.21-0.14-0.22-0.28c-0.04-0.6-0.09-1.2-0.13-1.8c-0.02-0.3-0.03-0.6-0.06-0.9c-0.02-0.16-0.03-0.3,0.17-0.35
		c0.24-0.06,0.45-0.01,0.54,0.16c0.03,0.05,0.04,0.1,0.06,0.15c0.3,0.72,0.59,1.44,0.89,2.16c0.02,0.05,0.06,0.08,0.14,0.19
		c0.07-0.19,0.12-0.32,0.16-0.45c0.18-0.67,0.35-1.35,0.53-2.03c0.03-0.1,0.05-0.25,0.12-0.29c0.12-0.07,0.29-0.11,0.42-0.09
		c0.07,0.01,0.14,0.19,0.15,0.29c0.08,0.91,0.15,1.83,0.21,2.75c0.01,0.09-0.04,0.22-0.11,0.27c-0.14,0.1-0.27,0.01-0.29-0.2
		c-0.05-0.6-0.09-1.2-0.14-1.8c-0.01-0.13-0.04-0.26-0.05-0.39C36.67,60.4,36.63,60.4,36.6,60.39z"/>
	<path d="M40.8,5.5c0.14,0.24,0.24,0.41,0.35,0.59c0.29-0.19-0.02-0.39,0.03-0.6c0.21-0.22,0.72-0.21,0.61-0.71
		c0.49-0.25,0.75-0.24,1.04,0.08c-0.21,0.19-0.41,0.38-0.62,0.57c-0.23,0.2-0.45,0.37-0.41,0.75c0.03,0.29-0.19,0.39-0.52,0.32
		c-0.16,0.24-0.32,0.48-0.47,0.71c-0.2,0.3-0.13,0.49,0.23,0.55c0.23,0.04,0.47,0.05,0.7,0.03c0.33-0.02,0.48-0.19,0.54-0.52
		c0.03-0.17,0.05-0.33,0.08-0.49c0.08,0.01,0.13,0,0.14,0.01c0.29,0.41,0.37,0.87,0.3,1.36c-0.04,0.24-0.19,0.33-0.44,0.35
		C41.67,8.53,41,8.38,40.34,8.19c-0.32-0.09-0.4-0.28-0.32-0.61c0.06-0.22,0.14-0.44,0.23-0.66C40.41,6.48,40.59,6.04,40.8,5.5z"/>
	<path d="M32.09,61.46c0.35,0.48,0.64,0.98,0.85,1.56c-0.31,0.04-0.49-0.01-0.6-0.24c-0.12-0.26-0.26-0.51-0.38-0.77
		c-0.21-0.44-0.54-0.67-1.03-0.66c-0.26,0.01-0.3,0.03-0.33,0.3c-0.03,0.3-0.06,0.6-0.09,0.9c-0.02,0.16-0.08,0.27-0.26,0.24
		c-0.15-0.03-0.18-0.15-0.17-0.28c0.1-0.94,0.2-1.88,0.3-2.82c0.02-0.18,0.1-0.28,0.29-0.25c0.53,0.06,1.06,0.12,1.59,0.2
		c0.34,0.05,0.59,0.25,0.68,0.58s0.06,0.67-0.22,0.91c-0.13,0.11-0.31,0.17-0.46,0.26C32.21,61.4,32.16,61.42,32.09,61.46z
		 M32,61.05c0.24,0.01,0.51-0.21,0.54-0.53c0.03-0.29-0.17-0.52-0.51-0.58c-0.28-0.05-0.57-0.09-0.85-0.12
		c-0.33-0.03-0.38,0.02-0.42,0.34c-0.02,0.14-0.04,0.27-0.05,0.41c-0.03,0.31,0.01,0.37,0.31,0.4C31.3,61,31.59,61.02,32,61.05z"/>
	<path d="M59.13,46.77c0.41,0.22,0.8,0.43,1.19,0.64c-0.03,0.34-0.11,0.42-0.34,0.3c-0.88-0.47-1.76-0.95-2.63-1.43
		c-0.01-0.01-0.01-0.02-0.04-0.06c0.02-0.08,0.03-0.19,0.08-0.29c0.23-0.44,0.45-0.88,0.71-1.3c0.3-0.5,0.83-0.59,1.31-0.26
		c0.26,0.18,0.34,0.45,0.35,0.75c0,0.09,0,0.19,0,0.28c0.57-0.07,1.12-0.13,1.67-0.19c0.03,0.38-0.02,0.47-0.3,0.5
		c-0.29,0.04-0.57,0.06-0.86,0.06C59.65,45.8,59.29,46.12,59.13,46.77z M58.68,46.52c0.05-0.04,0.11-0.06,0.13-0.1
		c0.18-0.32,0.36-0.64,0.51-0.98c0.06-0.13,0.06-0.3,0.02-0.44c-0.11-0.39-0.62-0.51-0.88-0.18c-0.25,0.31-0.43,0.67-0.62,1.01
		c-0.08,0.14-0.02,0.27,0.13,0.34C58.21,46.29,58.44,46.4,58.68,46.52z"/>
	<path d="M23.06,57.57c0.36-0.04,0.44,0.19,0.5,0.42c0.18,0.72,0.35,1.44,0.52,2.16c0.03,0.14,0.08,0.27,0.13,0.41
		c0.03,0,0.07,0,0.1,0c0.05-0.12,0.11-0.23,0.15-0.35c0.19-0.53,0.38-1.06,0.58-1.58c0.02-0.05,0.02-0.13,0.06-0.15
		c0.08-0.05,0.18-0.12,0.27-0.12c0.13,0.02,0.15,0.14,0.11,0.26c-0.09,0.27-0.19,0.54-0.29,0.81c-0.22,0.6-0.44,1.21-0.67,1.81
		c-0.04,0.11-0.11,0.21-0.17,0.32c-0.28-0.05-0.4-0.18-0.45-0.43c-0.16-0.72-0.35-1.44-0.53-2.15c-0.04-0.15-0.09-0.3-0.17-0.54
		c-0.09,0.16-0.14,0.23-0.17,0.32c-0.21,0.57-0.4,1.14-0.61,1.7c-0.03,0.08-0.05,0.18-0.1,0.22c-0.06,0.05-0.17,0.07-0.25,0.05
		c-0.05-0.01-0.09-0.12-0.1-0.19c-0.01-0.08,0.03-0.16,0.06-0.24c0.31-0.86,0.63-1.72,0.94-2.58
		C22.99,57.66,23.03,57.62,23.06,57.57z"/>
	<path d="M49.75,55.64c0.11,0.15,0.21,0.31,0.32,0.46c0.33,0.42,0.66,0.84,0.99,1.26c0.16,0.2,0.15,0.21-0.12,0.44
		c-0.21-0.24-0.43-0.48-0.63-0.73c-0.41-0.53-0.82-1.06-1.23-1.59c-0.09-0.12-0.24-0.22-0.12-0.39c0.12-0.17,0.3-0.16,0.48-0.1
		c0.71,0.24,1.43,0.47,2.15,0.71c0.15,0.05,0.31,0.09,0.5,0.15c-0.03-0.23-0.15-0.34-0.24-0.46c-0.34-0.44-0.69-0.89-1.04-1.33
		c-0.1-0.12-0.22-0.24-0.03-0.38c0.18-0.14,0.28,0.03,0.37,0.14c0.33,0.42,0.66,0.84,0.99,1.26c0.23,0.29,0.46,0.58,0.68,0.88
		c0.06,0.08,0.12,0.24,0.08,0.28c-0.08,0.09-0.22,0.17-0.34,0.18c-0.14,0.01-0.29-0.06-0.43-0.11c-0.71-0.24-1.43-0.48-2.14-0.72
		c-0.05-0.02-0.1-0.01-0.15-0.02C49.8,55.59,49.78,55.61,49.75,55.64z"/>
	<path d="M7.04,45.49c0.51-0.21,1.03-0.43,1.54-0.64c0.16-0.07,0.33-0.14,0.49-0.21c0.13-0.06,0.25-0.04,0.3,0.11
		c0.06,0.15-0.03,0.22-0.16,0.28c-0.38,0.16-0.75,0.33-1.13,0.49c-0.45,0.19-0.9,0.39-1.36,0.58c-0.13,0.05-0.27,0.17-0.42,0.03
		c-0.12-0.12-0.12-0.31,0.03-0.53c0.33-0.52,0.68-1.03,1.01-1.55c0.15-0.24,0.3-0.48,0.48-0.77c-0.3-0.02-0.49,0.11-0.69,0.19
		c-0.44,0.19-0.88,0.38-1.32,0.57c-0.06,0.03-0.13,0.07-0.19,0.06c-0.08-0.01-0.2-0.05-0.22-0.11c-0.03-0.06,0.01-0.19,0.07-0.24
		c0.08-0.07,0.19-0.1,0.29-0.14c0.73-0.31,1.46-0.62,2.19-0.93c0.17-0.07,0.34-0.22,0.52-0.04c0.12,0.12,0.08,0.31-0.09,0.56
		c-0.45,0.69-0.89,1.38-1.33,2.07C7.02,45.32,7,45.39,6.97,45.44C7,45.45,7.02,45.47,7.04,45.49z"/>
	<path d="M14.15,52.69c-0.32,0.34-0.64,0.67-0.95,1.01c-0.18,0.19-0.36,0.38-0.54,0.57c-0.09,0.09-0.18,0.18-0.31,0.06
		c-0.14-0.13-0.07-0.23,0.04-0.35c0.52-0.56,1.04-1.13,1.56-1.69c0.1-0.11,0.2-0.23,0.3-0.34c0.09-0.1,0.2-0.24,0.34-0.13
		c0.1,0.08,0.2,0.25,0.19,0.37c-0.01,0.3-0.09,0.59-0.14,0.89c-0.1,0.57-0.2,1.13-0.29,1.7c-0.01,0.05,0.01,0.1,0.03,0.23
		c0.14-0.1,0.26-0.16,0.34-0.25c0.4-0.42,0.78-0.84,1.17-1.26c0.02-0.02,0.04-0.04,0.06-0.06c0.09-0.08,0.18-0.19,0.32-0.09
		c0.12,0.08,0.11,0.24-0.03,0.4c-0.21,0.23-0.44,0.45-0.65,0.69c-0.4,0.43-0.8,0.86-1.2,1.3c-0.09,0.1-0.19,0.22-0.35,0.16
		c-0.16-0.07-0.21-0.21-0.2-0.37c0.02-0.18,0.04-0.35,0.07-0.53c0.11-0.65,0.22-1.3,0.33-1.95c0.02-0.1,0-0.21,0-0.31
		C14.22,52.71,14.18,52.7,14.15,52.69z"/>
	<path d="M7.12,47.51c0.77-0.47,1.47-0.9,2.17-1.32c0.14-0.09,0.28-0.18,0.42-0.26c0.23-0.14,0.3-0.13,0.44,0.09
		c0.2,0.31,0.38,0.63,0.57,0.95c0.46,0.78,0.14,1.29-0.26,1.71c-0.31,0.33-0.7,0.53-1.13,0.64c-0.51,0.12-0.95,0.02-1.3-0.39
		C7.65,48.51,7.43,48.01,7.12,47.51z M8.94,48.92c0.58-0.04,1.04-0.33,1.39-0.77c0.21-0.27,0.26-0.6,0.08-0.92
		c-0.11-0.19-0.21-0.38-0.33-0.57c-0.18-0.3-0.24-0.3-0.55-0.11c-0.12,0.07-0.23,0.14-0.35,0.21c-0.42,0.26-0.84,0.51-1.26,0.77
		c-0.14,0.09-0.25,0.19-0.14,0.36c0.16,0.25,0.32,0.51,0.5,0.75C8.44,48.85,8.66,48.95,8.94,48.92z"/>
	<path d="M18.7,57.17c-0.21,0.32-0.38,0.62-0.58,0.89c-0.06,0.08-0.21,0.13-0.32,0.14c-0.8,0.07-1.7-0.53-1.96-1.29
		c-0.09-0.27-0.09-0.54-0.01-0.81c0.21-0.7,0.62-1.2,1.33-1.45c0.27-0.09,0.52-0.06,0.77,0.02c0.51,0.16,0.95,0.43,1.17,0.95
		c0.13,0.31,0.12,0.49-0.01,0.82c-0.32-0.04-0.34-0.04-0.32-0.31c0.04-0.51-0.25-0.79-0.65-1c-0.39-0.2-0.78-0.21-1.15,0.08
		c-0.27,0.21-0.49,0.44-0.62,0.75c-0.38,0.89,0.11,1.49,0.83,1.74c0.11,0.04,0.24,0.06,0.36,0.07c0.26,0.02,0.53-0.2,0.53-0.46
		c0-0.07-0.05-0.16-0.1-0.2c-0.12-0.11-0.26-0.2-0.4-0.29c-0.12-0.08-0.19-0.17-0.1-0.3c0.08-0.12,0.19-0.09,0.29-0.02
		C18.05,56.72,18.36,56.93,18.7,57.17z"/>
	<path d="M11.6,49.31c0.86,0,1.38,0.52,1.6,1.08c0.25,0.64,0.06,1.22-0.4,1.7c-0.41,0.43-0.92,0.71-1.54,0.62
		c-0.66-0.09-1.09-0.49-1.32-1.1c-0.24-0.64-0.03-1.19,0.41-1.66C10.72,49.57,11.18,49.34,11.6,49.31z M12.89,50.88
		c0.02-0.57-0.4-1.04-0.96-1.15c-0.5-0.1-1.27,0.4-1.54,0.9c-0.4,0.73,0.1,1.61,0.93,1.69C11.94,52.38,12.96,51.55,12.89,50.88z"/>
	<path d="M29.26,60.61c-0.09,0.31-0.15,0.64-0.29,0.93c-0.32,0.69-0.98,0.99-1.74,0.84c-0.69-0.13-1.19-0.7-1.26-1.43
		c-0.05-0.53,0.1-1.01,0.41-1.43c0.4-0.54,0.95-0.71,1.6-0.55c0.66,0.16,1.09,0.61,1.2,1.25c0.02,0.12,0.02,0.25,0.03,0.37
		C29.23,60.6,29.24,60.61,29.26,60.61z M28.76,60.51c-0.02-0.7-0.37-1.15-1.01-1.2c-0.58-0.05-1.04,0.21-1.24,0.9
		c-0.07,0.23-0.1,0.48-0.11,0.72c-0.01,0.53,0.32,0.93,0.88,1.09c0.45,0.13,0.95-0.07,1.2-0.49C28.67,61.23,28.8,60.89,28.76,60.51z
		"/>
	<path d="M55.9,48.91c0.28,0.21,0.52,0.39,0.8,0.6c0.16-0.2,0.3-0.36,0.43-0.53c0.19-0.25,0.37-0.51,0.56-0.76
		c0.08-0.11,0.17-0.19,0.3-0.09s0.07,0.21-0.01,0.32c-0.3,0.41-0.59,0.82-0.91,1.26c0.24,0.3,0.56,0.47,0.9,0.7
		c0.12-0.14,0.23-0.25,0.32-0.38c0.25-0.34,0.49-0.69,0.74-1.04c0.07-0.1,0.16-0.23,0.3-0.13s0.11,0.24,0.02,0.36
		c-0.38,0.54-0.77,1.07-1.16,1.6c-0.11,0.16-0.23,0.15-0.38,0.04c-0.76-0.56-1.53-1.11-2.3-1.67c-0.14-0.1-0.16-0.22-0.07-0.35
		c0.39-0.54,0.79-1.09,1.2-1.62c0.04-0.05,0.18-0.07,0.24-0.04c0.12,0.06,0.1,0.18,0.03,0.28c-0.23,0.31-0.46,0.61-0.68,0.92
		C56.13,48.55,56.03,48.71,55.9,48.91z"/>
	<path d="M62.57,42.5c-0.01,0.48-0.2,0.89-0.52,1.25c-0.23,0.25-0.55,0.3-0.87,0.27c-0.06-0.01-0.16-0.1-0.16-0.15
		c0-0.08,0.05-0.18,0.12-0.23c0.06-0.04,0.16-0.03,0.24-0.05c0.53-0.13,0.92-0.78,0.8-1.31c-0.1-0.4-0.53-0.55-0.82-0.25
		c-0.25,0.27-0.45,0.58-0.67,0.88c-0.09,0.12-0.18,0.25-0.29,0.34c-0.45,0.36-1.07,0.16-1.27-0.38c-0.21-0.57,0.12-1.42,0.62-1.69
		c0.15-0.08,0.34-0.1,0.51-0.12c0.06,0,0.18,0.09,0.19,0.15c0.01,0.07-0.06,0.16-0.12,0.23c-0.03,0.03-0.1,0.02-0.16,0.04
		c-0.49,0.11-0.83,0.67-0.71,1.17c0.08,0.33,0.39,0.47,0.66,0.26c0.15-0.11,0.25-0.28,0.37-0.44c0.15-0.2,0.27-0.41,0.42-0.61
		c0.28-0.36,0.66-0.51,1-0.4c0.4,0.13,0.67,0.52,0.67,0.98C62.58,42.46,62.57,42.47,62.57,42.5z"/>
	<path d="M5.01,36.39c-0.33,0.04-0.6,0.08-0.87,0.12c-0.16,0.02-0.32,0.06-0.49,0.08c-0.15,0.02-0.24-0.05-0.25-0.2
		c-0.01-0.14,0.07-0.2,0.19-0.22c0.49-0.08,0.97-0.17,1.46-0.25c0.41-0.07,0.81-0.12,1.22-0.19c0.08-0.01,0.16-0.02,0.25-0.02
		c0.12,0,0.22,0.05,0.23,0.19c0.01,0.13-0.05,0.2-0.19,0.22c-0.28,0.05-0.57,0.11-0.85,0.15c-0.21,0.03-0.3,0.12-0.26,0.32
		C5.51,37,5.58,37.4,5.64,37.81c0.03,0.19,0.14,0.25,0.32,0.23C6.23,38,6.5,37.96,6.77,37.91c0.15-0.02,0.28-0.03,0.32,0.16
		C7.12,38.26,7,38.3,6.85,38.33c-0.92,0.15-1.84,0.3-2.76,0.44c-0.13,0.02-0.26,0.02-0.3-0.14C3.74,38.47,3.84,38.37,4,38.35
		c0.3-0.05,0.6-0.09,0.89-0.14c0.36-0.06,0.4-0.12,0.35-0.46C5.18,37.31,5.1,36.88,5.01,36.39z"/>
	<path d="M5.75,34.6c-0.12-0.2-0.09-0.32,0.08-0.44c0.44-0.3,0.55-0.78,0.31-1.26c-0.09-0.18-0.22-0.31-0.44-0.31
		c-0.24,0-0.34,0.16-0.4,0.35c-0.08,0.32-0.15,0.64-0.23,0.96c-0.03,0.1-0.04,0.19-0.08,0.28c-0.28,0.73-1.08,0.85-1.57,0.24
		c-0.38-0.47-0.4-1.44,0-1.89c0.14-0.16,0.35-0.26,0.54-0.35c0.05-0.03,0.2,0.04,0.22,0.09c0.03,0.07-0.03,0.17-0.06,0.25
		c-0.01,0.02-0.05,0.03-0.07,0.04c-0.6,0.24-0.62,1.07-0.4,1.5c0.09,0.19,0.25,0.33,0.48,0.32c0.22-0.02,0.4-0.12,0.46-0.35
		c0.09-0.34,0.16-0.69,0.25-1.04c0.03-0.12,0.06-0.24,0.12-0.35c0.15-0.28,0.37-0.47,0.71-0.47s0.59,0.17,0.74,0.43
		c0.29,0.51,0.29,1.05,0,1.57C6.28,34.44,6.05,34.54,5.75,34.6z"/>
	<path d="M4.98,42.74C4.8,42.42,4.8,42.38,5,42.2c0.14-0.13,0.29-0.26,0.45-0.36c0.17-0.11,0.19-0.24,0.12-0.42
		c-0.1-0.28-0.18-0.57-0.26-0.86c-0.05-0.18-0.16-0.25-0.32-0.26c-0.2-0.01-0.41,0-0.62-0.02c-0.26-0.03-0.27-0.06-0.25-0.42
		c0.27,0.01,0.54,0.02,0.8,0.04c0.81,0.05,1.61,0.11,2.42,0.16c0.17,0.01,0.28,0.07,0.34,0.24c0.05,0.17,0.01,0.29-0.12,0.4
		c-0.81,0.67-1.62,1.34-2.44,2C5.1,42.72,5.05,42.72,4.98,42.74z M5.62,40.37c0.13,0.39,0.22,0.7,0.32,1
		c0.4-0.17,1.02-0.65,1.18-0.94C6.63,40.37,6.17,40.35,5.62,40.37z"/>
	<path d="M41.36,61.94c-0.3,0.17-0.37,0.18-0.51-0.01c-0.12-0.16-0.23-0.34-0.34-0.51c-0.1-0.15-0.23-0.22-0.42-0.17
		c-0.28,0.07-0.56,0.12-0.84,0.18c-0.2,0.04-0.31,0.16-0.33,0.36s-0.05,0.41-0.09,0.61s-0.18,0.25-0.42,0.19
		c0.04-0.3,0.07-0.59,0.11-0.89c0.11-0.7,0.22-1.41,0.34-2.11c0.02-0.11,0.03-0.22,0.06-0.32c0.09-0.26,0.42-0.32,0.59-0.1
		c0.2,0.26,0.37,0.54,0.56,0.81c0.41,0.6,0.82,1.2,1.23,1.8C41.31,61.81,41.33,61.87,41.36,61.94z M39.33,59.61
		c-0.04,0-0.08,0.01-0.13,0.01c0,0.48-0.17,0.94-0.15,1.48c0.37-0.1,0.72-0.05,1.05-0.31C39.85,60.39,39.59,60,39.33,59.61z"/>
	<path d="M49.31,58.19c-0.03,0.15-0.05,0.28-0.09,0.39c-0.19,0.5-0.96,0.96-1.49,0.92c-0.36-0.03-0.61-0.23-0.8-0.51
		s-0.37-0.58-0.54-0.87c-0.18-0.32-0.35-0.65-0.53-0.98c-0.07-0.12-0.08-0.24,0.06-0.32c0.15-0.08,0.24-0.02,0.32,0.13
		c0.29,0.54,0.6,1.08,0.89,1.62c0.39,0.72,0.99,0.61,1.5,0.16c0.25-0.21,0.28-0.5,0.15-0.79c-0.21-0.44-0.45-0.88-0.68-1.31
		c-0.1-0.19-0.22-0.38-0.32-0.57c-0.07-0.13-0.06-0.24,0.07-0.32c0.15-0.09,0.26-0.03,0.34,0.11c0.33,0.63,0.67,1.26,0.99,1.89
		C49.25,57.88,49.27,58.05,49.31,58.19z"/>
	<path d="M55.99,52.6c-0.05-0.11-0.1-0.21-0.15-0.32c-0.36-0.69-0.73-1.38-1.09-2.07c-0.14-0.28-0.13-0.3,0.15-0.49
		c0.05,0.06,0.11,0.11,0.14,0.18c0.46,0.9,0.91,1.81,1.36,2.72c0.04,0.09,0.06,0.21,0.03,0.3c-0.08,0.22-0.22,0.26-0.46,0.17
		c-0.47-0.18-0.95-0.36-1.42-0.54c-0.44-0.16-0.87-0.33-1.31-0.49c-0.1-0.04-0.19-0.09-0.28-0.14c0.14-0.33,0.19-0.36,0.46-0.25
		c0.75,0.3,1.5,0.61,2.25,0.91c0.08,0.03,0.17,0.06,0.26,0.09C55.94,52.64,55.96,52.62,55.99,52.6z"/>
	<path d="M51.31,12.91c0.33-0.06,0.51,0.01,0.62,0.29c0.07,0.18,0.11,0.37,0.15,0.55c0.05,0.29,0.19,0.51,0.46,0.64
		c0.1,0.05,0.19,0.12,0.26,0.19c0.21,0.21,0.16,0.47-0.13,0.51c-0.38,0.05-0.77,0.06-1.15,0.04c-0.24-0.01-0.41-0.26-0.35-0.51
		c0.09-0.4-0.02-0.82,0.17-1.21C51.41,13.29,51.33,13.09,51.31,12.91z"/>
	<path d="M60.87,35.19c-0.09-0.27-0.02-0.44,0.21-0.57c0.32-0.18,0.64-0.38,0.95-0.57c0.11-0.07,0.22-0.15,0.37-0.26
		c-0.18-0.13-0.32-0.24-0.46-0.34c-0.28-0.2-0.56-0.39-0.84-0.59c-0.18-0.12-0.26-0.28-0.13-0.54c0.13,0.07,0.26,0.13,0.38,0.21
		c0.4,0.29,0.8,0.58,1.18,0.89c0.19,0.16,0.4,0.23,0.64,0.22c0.26,0,0.52,0,0.78,0c0.15,0,0.28,0.04,0.27,0.22s-0.14,0.22-0.29,0.22
		c-0.18,0-0.36,0-0.53-0.02c-0.47-0.07-0.85,0.12-1.22,0.37c-0.35,0.24-0.72,0.45-1.09,0.66C61.03,35.15,60.95,35.16,60.87,35.19z"
		/>
	<path d="M60.4,38.21c0.12-0.76,0.22-1.45,0.32-2.14c0-0.03,0.01-0.05,0.01-0.08c0.02-0.12,0.09-0.23,0.22-0.17
		c0.07,0.03,0.13,0.16,0.13,0.25c0,0.18-0.05,0.35-0.07,0.53c-0.03,0.31,0,0.35,0.31,0.4c0.64,0.09,1.27,0.17,1.91,0.26
		c0.15,0.02,0.3,0.05,0.45,0.07c0.14,0.02,0.24,0.07,0.22,0.23c-0.02,0.18-0.13,0.22-0.29,0.2c-0.72-0.11-1.43-0.21-2.15-0.31
		c-0.09-0.01-0.19-0.03-0.28-0.04c-0.17-0.01-0.28,0.05-0.3,0.25c-0.01,0.19-0.06,0.38-0.09,0.57c-0.02,0.14-0.07,0.27-0.23,0.21
		C60.48,38.39,60.43,38.26,60.4,38.21z"/>
	<path d="M42.73,61.2c0.42-0.13,0.79-0.25,1.17-0.37c0.07-0.02,0.13-0.07,0.19-0.06c0.07,0.01,0.19,0.05,0.19,0.09
		c0.01,0.08-0.04,0.17-0.07,0.25c-0.01,0.02-0.05,0.03-0.07,0.04c-0.56,0.18-1.12,0.36-1.72,0.56c-0.1-0.26-0.2-0.5-0.28-0.74
		c-0.23-0.68-0.44-1.35-0.66-2.03c-0.02-0.07-0.04-0.13-0.06-0.2c-0.03-0.13-0.03-0.25,0.13-0.29c0.15-0.04,0.24,0.03,0.28,0.16
		c0.1,0.3,0.19,0.6,0.28,0.9c0.16,0.49,0.33,0.99,0.5,1.48C42.64,61.05,42.68,61.11,42.73,61.2z"/>
	<path d="M15,13.55c0.15-0.23,0.4-0.29,0.61-0.24c0.35,0.07,0.61,0,0.83-0.28c0.03-0.04,0.1-0.04,0.2-0.08
		c0.03,0.13,0.08,0.24,0.07,0.35c-0.04,0.32-0.09,0.65-0.16,0.97c-0.03,0.13-0.11,0.25-0.2,0.35c-0.19,0.21-0.36,0.21-0.55,0
		c-0.17-0.19-0.3-0.41-0.46-0.62C15.24,13.85,15.13,13.71,15,13.55z"/>
	<path d="M18.34,10.12c0.05,0.04,0.1,0.06,0.13,0.1c0.12,0.2,0.29,0.25,0.52,0.23c0.35-0.03,0.54,0.11,0.57,0.39
		c0.01,0.12-0.03,0.29-0.11,0.36c-0.15,0.14-0.24,0.29-0.27,0.49c-0.01,0.05-0.03,0.11-0.05,0.16c-0.06,0.12-0.13,0.26-0.3,0.23
		c-0.15-0.03-0.17-0.16-0.16-0.3c0.02-0.28-0.09-0.47-0.34-0.59c-0.3-0.15-0.33-0.46-0.35-0.74C17.95,10.23,18.16,10.18,18.34,10.12
		z"/>
	<path d="M51.92,52.75c0.09-0.09,0.18-0.16,0.24-0.22c0.29,0.27,0.55,0.51,0.8,0.76c0.41,0.42,0.81,0.86,1.21,1.29
		c0.07,0.07,0.15,0.14,0.18,0.22c0.03,0.09,0.03,0.22-0.02,0.29c-0.07,0.11-0.19,0.08-0.28-0.01c-0.14-0.13-0.27-0.27-0.4-0.41
		c-0.51-0.55-1.02-1.11-1.53-1.66C52.05,52.94,52,52.86,51.92,52.75z"/>
	<path d="M63.06,40.42c-0.2-0.05-0.33-0.09-0.46-0.12c-0.78-0.19-1.56-0.39-2.34-0.58C60.14,39.69,60,39.68,60,39.51
		c0-0.18,0.12-0.26,0.34-0.2c0.54,0.13,1.09,0.27,1.63,0.4c0.37,0.09,0.74,0.19,1.11,0.28c0.14,0.03,0.24,0.12,0.18,0.26
		C63.23,40.33,63.11,40.38,63.06,40.42z"/>
	<path d="M39.67,2.9c-0.16,0.33-0.3,0.56-0.23,0.88c0.06,0.26-0.46,0.67-0.74,0.64c-0.25-0.02-0.4-0.19-0.35-0.45
		c0.03-0.14,0.07-0.31,0.17-0.4c0.25-0.24,0.54-0.45,0.82-0.66C39.4,2.87,39.51,2.9,39.67,2.9z"/>
	<path d="M42.09,3.79c-0.08,0-0.15,0.01-0.22,0c-0.25-0.02-0.29-0.13-0.16-0.35c0.03-0.05,0.07-0.08,0.1-0.13
		c0.06-0.13,0.08-0.33,0.18-0.38c0.16-0.08,0.37-0.07,0.55-0.09c0.04,0,0.08,0,0.12,0.01c0.17,0.06,0.41,0.01,0.45,0.27
		c0.03,0.21-0.2,0.52-0.44,0.58C42.49,3.75,42.28,3.76,42.09,3.79z"/>
	<path d="M39.76,3.63c0.15-0.39,0.27-0.46,0.63-0.44c0.28,0.01,0.57-0.01,0.85,0c0.08,0,0.17,0.05,0.25,0.08
		c-0.03,0.07-0.06,0.15-0.11,0.2c-0.14,0.16-0.3,0.31-0.45,0.47c-0.13,0.15-0.3,0.21-0.47,0.12C40.24,3.93,40.01,3.79,39.76,3.63z"
		/>
	<path class="st0" d="M27.58,22.7c0-0.79,0.18-1.54,0.46-2.28c0.46-1.22,1.08-2.37,1.78-3.47c0.94-1.49,1.96-2.94,2.95-4.4
		c0.15-0.23,0.31-0.45,0.48-0.67c0.21-0.29,0.26-0.29,0.46,0c0.47,0.71,0.94,1.41,1.4,2.13c0.94,1.51,1.88,3.03,2.81,4.54
		c0.66,1.09,1.17,2.23,1.3,3.52c0.16,1.59-0.12,3.06-1.08,4.37c-0.68,0.93-1.52,1.66-2.59,2.09c-2.23,0.89-4.56,0.2-6-1.16
		C28.19,26.09,27.61,24.52,27.58,22.7z"/>
	<polygon class="st1" points="13.56,20.97 33.07,35.54 33.07,41.53 18.79,30.81 18.79,31.69 33.07,42.75 33.07,55.73 13.56,40.11 
		13.56,34.2 27.96,45.89 27.96,44.76 13.56,33.07 	"/>
	<polygon class="st0" points="34.12,35.59 34.12,55.73 38.43,52.25 38.43,38.81 43.5,42.2 48.53,38.68 48.53,24.65 44.3,28 
		44.3,37.05 37.93,32.65 	"/>
	<polygon class="st1" points="43.5,28.59 43.5,36.5 39.16,33.5 39.16,31.86 	"/>
	<polygon class="st1" points="39.16,39.29 39.16,51.67 53.68,40.69 53.68,20.8 49.32,23.98 49.32,39.1 43.5,43.46 43.5,42.2 	"/>
</g>
<g id="HYJyS3_1_">
	<g>
		<path d="M248.01,33.43c-0.14-0.65-0.24-1.18-0.36-1.7c-0.08-0.36-0.33-0.51-0.66-0.39c-0.5,0.18-0.97,0.43-1.45,0.65
			c-0.23,0.11-0.46,0.22-0.68,0.34c-0.3,0.15-0.6,0.29-0.89,0.47c-0.3,0.19-0.63,0.36-0.87,0.61c-0.27,0.28-0.53,0.6-0.69,0.95
			c-0.29,0.61-0.59,1.2-1.13,1.62c-0.15,0.12-0.44,0.13-0.65,0.1c-0.58-0.09-1.17-0.18-1.71-0.38c-0.43-0.16-0.83-0.46-1.16-0.77
			c-0.3-0.28-0.05-1.15,0.41-1.41c0.62-0.35,1.29-0.63,1.93-0.94c0.84-0.4,1.67-0.8,2.51-1.2c0.66-0.32,1.32-0.63,1.97-0.97
			c0.62-0.32,1.24-0.66,1.84-1.02c0.45-0.27,0.87-0.6,1.31-0.9c0.23-0.16,0.47-0.33,0.33-0.67c-0.14-0.33-0.33-0.57-0.75-0.59
			c-0.68-0.03-1.02-0.35-1.02-0.92c0-0.7,0.31-1.22,0.95-1.56c0.66-0.34,1.27-0.86,1.96-1.07c1.19-0.35,1.97-1.4,3.13-1.73
			c0.84-0.24,1.4-0.66,1.57-1.55c0.04-0.19,0.28-0.34,0.32-0.54c0.06-0.27,0.08-0.59-0.02-0.83c-0.05-0.11-0.44-0.14-0.65-0.1
			c-1.1,0.22-2.2,0.44-3.27,0.75c-0.52,0.15-0.98,0.49-1.47,0.75c-0.11,0.06-0.22,0.16-0.34,0.19c-0.15,0.03-0.38,0.07-0.45,0
			c-0.09-0.11-0.08-0.32-0.09-0.49c-0.01-0.22,0.11-0.53,0-0.64c-0.24-0.26-0.54-0.12-0.85,0.01c-1,0.45-1.64,1.23-2.19,2.14
			c-0.28,0.46-0.71,0.84-1.09,1.24c-0.65,0.69-1.32,1.36-1.96,2.05c-0.32,0.35-0.17,0.78,0.3,0.89s0.96-0.21,1.25-0.66
			c0.38-0.57,0.82-1.11,1.29-1.61c0.57-0.6,1.25-1.05,1.97-1.47c0.16-0.1,0.21-0.38,0.38-0.49c0.19-0.12,0.5-0.25,0.66-0.18
			c0.32,0.14,0.13,0.41-0.03,0.6c-0.31,0.37-0.64,0.72-0.93,1.11c-0.27,0.37-0.47,0.8-0.75,1.16c-0.32,0.41-0.71,0.76-1.05,1.15
			c-0.51,0.59-0.98,1.21-1.51,1.79c-0.6,0.66-1.23,1.28-1.86,1.91c-0.45,0.45-0.92,0.87-1.39,1.29c-0.12,0.11-0.27,0.18-0.41,0.26
			c-0.94,0.55-1.58,0-2.42-0.96c-0.73-0.84-0.61-1.63,0.23-2.36c0.62-0.54,1.29-1.05,1.99-1.49c1.07-0.67,1.82-1.52,2.39-2.67
			c0.42-0.84,1.25-1.46,1.9-2.19c0.19-0.21,0.35-0.44,0.52-0.66c0.07-0.09,0.13-0.18,0.21-0.26c0.25-0.27,0.54-0.51,0.74-0.8
			c0.1-0.14,0.02-0.4,0.03-0.6c-0.22,0.01-0.5-0.07-0.64,0.04c-0.7,0.53-1.35,1.14-2.06,1.67c-0.74,0.55-1.65,0.34-2.16-0.46
			c-0.43-0.67-0.53-1.39-0.35-2.16c0.12-0.51,0.07-0.92-0.48-1.19c-0.13-0.06-0.23-0.36-0.2-0.53c0.02-0.13,0.26-0.31,0.41-0.31
			c0.87-0.03,1.76-0.12,2.45,0.66c0.23,0.26,0.64,0.38,1,0.48c0.41,0.12,0.8-0.24,0.69-0.64c-0.38-1.4-0.83-2.78-1.93-3.81
			c-0.36-0.34-0.82-0.58-1.15-0.94c-0.19-0.21-0.24-0.58-0.25-0.88c0-0.11,0.29-0.35,0.42-0.34c0.52,0.07,1.04,0.21,1.56,0.33
			c0.08,0.02,0.16,0.08,0.23,0.08c1-0.07,1.72,0.49,2.47,1.03c0.15,0.11,0.46,0.16,0.59,0.07c0.61-0.39,1.26-0.78,1.75-1.29
			c0.33-0.35,0.38-0.92,0.18-1.44c-0.13-0.35-0.4-0.78-0.04-1.03c0.25-0.18,0.71-0.13,1.06-0.07c0.4,0.06,0.78,0.24,1.16,0.39
			s0.53,0.82,0.35,1.29c-0.32,0.8-0.9,1.37-1.53,1.91c-0.28,0.24-0.51,0.54-0.72,0.84c-0.06,0.09-0.03,0.35,0.06,0.42
			c0.11,0.1,0.35,0.17,0.47,0.12c0.63-0.3,1.25-0.62,1.86-0.97c1.05-0.61,2.08-1.26,3.14-1.87c0.63-0.37,1.27-0.71,1.91-1.05
			c0.46-0.25,0.76-0.17,1.04,0.25c0.09,0.13,0.2,0.26,0.29,0.39c0.28,0.36,0.28,0.72-0.01,1.07c-0.43,0.5-0.91,0.97-1.28,1.51
			c-0.24,0.35-0.29,0.82-0.46,1.22c-0.26,0.66-0.55,1.3-0.81,1.96c-0.11,0.27-0.22,0.55-0.26,0.83c-0.05,0.34,0.2,0.51,0.5,0.54
			c0.27,0.03,0.56,0.04,0.83-0.02c0.9-0.21,1.58,0.3,2.28,0.67c0.4,0.21,0.38,0.78,0.07,1.27c-0.7,1.11-1.74,1.84-2.83,2.5
			c-0.32,0.2-0.73,0.26-1.1,0.39c-0.45,0.16-0.69,0.61-0.63,1.1c0.13,1.1-0.3,1.98-1.14,2.67c-0.11,0.09-0.25,0.15-0.37,0.24
			c-0.27,0.2-0.45,0.44-0.19,0.78c0.29,0.37,0.58,0.43,0.92,0.2c0.14-0.09,0.31-0.15,0.48-0.16c0.55-0.01,1.11,0.01,1.66,0.02
			c0.46,0.01,1.01,0.41,1.16,0.83c0.06,0.17,0.12,0.34,0.21,0.49c0.5,0.83,0.11,1.58-0.72,1.95c-1.07,0.48-2.18,0.78-3.37,0.58
			c-0.41-0.07-0.87,0.31-0.88,0.74c-0.01,0.68-0.06,1.38,0.1,2.03c0.24,0.99,0.2,1.97,0.16,2.97c-0.01,0.18-0.05,0.36-0.04,0.54
			c0.09,1.47-0.82,2.28-1.96,2.89c-0.72,0.38-1.72,0.02-2.33-0.87c-0.46-0.68-1.07-0.99-1.85-1.13c-0.62-0.11-1.23-0.32-1.81-0.57
			c-0.21-0.09-0.41-0.39-0.45-0.62c-0.02-0.14,0.26-0.39,0.46-0.48c0.59-0.26,1.16-0.11,1.76,0.09c0.58,0.19,1.19,0.3,1.79,0.38
			c0.42,0.05,0.72-0.22,0.8-0.64C247.77,34.9,247.89,34.11,248.01,33.43z M253.6,11.52c-0.08,0.04-0.25,0.1-0.39,0.21
			c-0.31,0.24-0.59,0.5-0.89,0.76c-0.84,0.72-0.56,1.25-0.09,1.9c0.3,0.43,0.72,0.35,0.99-0.11c0.21-0.35,0.45-0.68,0.65-1.03
			c0.17-0.3,0.36-0.62,0.45-0.95C254.46,11.83,254.18,11.51,253.6,11.52z M247.96,17.37c0.69,0,1.77-0.72,1.94-1.29
			c0.06-0.19-0.05-0.48-0.18-0.65c-0.08-0.11-0.38-0.19-0.5-0.13c-0.71,0.38-1.19,0.97-1.4,1.76
			C247.81,17.16,247.93,17.29,247.96,17.37z M245.51,15.18c-0.07-0.01-0.13-0.02-0.2-0.03c-0.16,0.21-0.37,0.4-0.46,0.64
			c-0.04,0.09,0.18,0.28,0.29,0.43c0.21-0.2,0.44-0.38,0.6-0.61C245.79,15.55,245.6,15.33,245.51,15.18z"/>
		<path d="M117.25,23.92c0.08-0.1,0.14-0.14,0.15-0.2c0.04-0.23,0.06-0.47,0.09-0.7c-0.21,0.08-0.44,0.13-0.62,0.25
			c-0.81,0.54-1.6,1.1-2.39,1.66c-0.73,0.51-1.41,0.47-2.04-0.13c-0.14-0.13-0.3-0.3-0.32-0.48c-0.14-0.94-0.86-1.51-1.38-2.2
			c-0.44-0.58-0.29-1.12,0.42-1.24c0.35-0.06,0.71-0.12,1.07-0.12c0.84-0.01,1.68,0.06,2.52,0.09c1.49,0.05,2.74-0.44,3.95-1.13
			c0.89-0.5,1.54-1.29,1.94-2.24c0.37-0.87,0.73-1.74,1.06-2.63c0.28-0.74,0.51-1.5,0.78-2.25c0.07-0.2,0.19-0.37,0.28-0.56
			c0.1-0.22,0.23-0.43,0.28-0.67c0.22-1.19,0.88-2.15,1.79-2.86c0.53-0.42,1.31-0.55,2.05-0.39c0.81,0.17,0.99,0.86,1.02,1.5
			c0.07,1.44-0.21,2.79-1.19,3.96c-0.77,0.92-1.43,1.93-2.09,2.92c-0.34,0.51-0.15,0.7,0.46,0.8c0.84,0.14,1.42-0.4,2.08-0.7
			c0.59-0.27,1.24-0.49,1.63-1.11c0.2-0.32,0.3-0.6,0.15-0.96c-0.05-0.12-0.14-0.27-0.11-0.37c0.09-0.3,0.24-0.58,0.36-0.87
			c0.23,0.1,0.49,0.17,0.69,0.32c0.42,0.34,0.7,0.83,1.28,1.02c0.27,0.09,0.5,0.43,0.63,0.72c0.08,0.16,0,0.52-0.14,0.64
			c-0.76,0.63-1.52,1.28-2.37,1.78c-0.8,0.47-1.71,0.77-2.57,1.15c-0.3,0.13-0.57,0.3-0.87,0.44c-0.96,0.43-1.95,0.8-2.86,1.31
			c-0.42,0.23-0.73,0.69-1.01,1.1c-0.46,0.69-0.83,1.44-1.29,2.13c-0.33,0.51-0.75,0.97-1.1,1.46c-0.37,0.52-0.74,1.03-1.04,1.59
			c-0.21,0.39,0.05,0.75,0.47,0.63c0.72-0.21,1.43-0.51,2.1-0.85c0.35-0.17,0.66-0.48,0.89-0.79c0.18-0.24,0.2-0.6,0.31-0.9
			c0.11-0.32,0.25-0.63,0.37-0.94c0.33-0.83,0.65-1.66,1.27-2.33c0.56-0.6,1.31-0.76,2.02-0.65c1.03,0.17,2.11,0.4,2.63,1.52
			c0.07,0.15,0.14,0.37,0.08,0.49c-0.24,0.42-0.49,0.85-0.82,1.2c-0.74,0.82-1.53,1.58-2.27,2.39c-0.56,0.61-0.77,1.36-0.75,2.2
			c0.03,1.04-0.03,2.09-0.03,3.13c0.01,1.01,0.07,2.02,0.06,3.03c0,0.8-0.03,1.6-0.11,2.39c-0.03,0.25-0.22,0.53-0.42,0.7
			c-0.29,0.26-0.64,0.44-0.98,0.64c-0.86,0.52-1.2,0.41-1.9-0.32c-0.52-0.55-1.14-1-1.74-1.47c-0.39-0.31-0.84-0.54-1.23-0.85
			c-0.32-0.26-0.1-0.48,0.16-0.59c0.34-0.14,0.71-0.24,1.08-0.31c1.09-0.19,1.38-1.02,1.48-1.92c0.07-0.68,0.05-1.37-0.03-2.05
			c-0.05-0.38-0.26-0.77-0.47-1.11c-0.21-0.35-0.56-0.4-0.89-0.15c-0.28,0.22-0.58,0.45-0.78,0.74c-0.46,0.66-0.99,1.03-1.85,0.82
			c-0.27-0.07-0.62,0.04-0.88,0.17c-0.62,0.3-0.89,0.24-1.26-0.34c-0.39-0.61-0.35-1.22-0.1-1.87c0.19-0.47,0.31-0.96,0.48-1.43
			c0.08-0.21,0.2-0.4,0.3-0.6c0.15-0.32,0.26-0.66,0.44-0.97c0.35-0.6,0.73-1.18,1.12-1.75C117.54,24.51,117.65,24.23,117.25,23.92z
			 M125.7,24.12c0.24-0.31,0.45-0.5,0.52-0.72c0.03-0.09-0.28-0.27-0.44-0.42c-0.17,0.19-0.38,0.37-0.49,0.59
			C125.26,23.65,125.5,23.86,125.7,24.12z"/>
		<path d="M81.19,32.01c0.06-0.01,0.28-0.03,0.48-0.09c0.63-0.2,1.26-0.42,1.88-0.63c0.7-0.24,1.42-0.45,2.11-0.73
			c0.34-0.13,0.69-0.32,0.94-0.58c0.53-0.54,1.02-1.13,1.5-1.71c0.09-0.11,0.14-0.27,0.15-0.41c0.06-0.84,0.1-1.68,0.15-2.53
			c0-0.05-0.01-0.1,0-0.15c0.15-0.9,0.3-1.79,0.46-2.69c0.03-0.19,0.1-0.38,0.11-0.57c0.07-1.15,0.14-2.3,0.54-3.39
			c0.01-0.02,0.01-0.03,0.01-0.05c-0.15-1.43,0.54-2.69,0.88-4.02c0.26-1.01,0.7-2.04,1.46-2.77c0.63-0.61,1.5-0.92,2.44-0.74
			c0.12,0.02,0.25,0.07,0.36,0.14c0.68,0.44,1.08,1.7,0.85,2.47c-0.07,0.23,0,0.51-0.01,0.76c-0.01,0.29,0.03,0.59-0.04,0.86
			c-0.24,0.84-0.56,1.66-0.79,2.51c-0.19,0.7-0.31,1.4-0.67,2.07s-0.43,1.49-0.64,2.24c-0.1,0.37-0.25,0.73-0.36,1.11
			c-0.16,0.57-0.31,1.15-0.44,1.73c-0.08,0.36-0.13,0.73-0.15,1.1c-0.01,0.35,0.18,0.47,0.51,0.3c1.11-0.56,2.24-1.1,3.33-1.69
			c0.66-0.36,1.31-0.77,1.92-1.22c1.39-1.02,3.15-0.47,3.97,0.62c0.27,0.36,0.56,0.71,0.83,1.08c0.36,0.5,0.23,1.04,0.03,1.54
			c-0.24,0.6-0.58,1.15-0.79,1.76c-0.47,1.38-1.52,2.05-2.83,2.42c-0.58,0.16-1.13,0.06-1.54-0.36c-0.2-0.2-0.32-0.56-0.34-0.85
			c-0.02-0.35,0.34-0.34,0.6-0.45c0.31-0.12,0.65-0.31,0.83-0.57c0.34-0.52,0.63-1.09,0.83-1.68c0.14-0.42-0.19-0.84-0.55-0.92
			c-0.32-0.07-0.75,0.12-1.04,0.33c-0.33,0.24-0.57,0.62-0.83,0.95c-0.54,0.7-1.31,1.04-2.08,1.44c-1.16,0.61-2.19,1.44-3,2.51
			c-0.47,0.61-1.15,0.94-1.85,1.22c-0.84,0.33-1.68,0.62-2.61,0.51c-0.24-0.03-0.51,0.09-0.76,0.15c-0.17,0.04-0.35,0.17-0.51,0.14
			c-0.8-0.14-1.44,0.21-2.1,0.59c-0.56,0.32-1.22,0.47-1.76,0.81c-0.6,0.37-1.14,0.85-1.66,1.34c-0.61,0.57-1.21,1.16-2.08,1.29
			c-0.3,0.04-0.63-0.05-0.93-0.14c-0.41-0.13-0.84-0.26-1.19-0.49c-0.74-0.47-1.36-2.04-0.76-3.16c0.78-1.44,1.55-2.9,2.28-4.37
			c0.36-0.73,0.62-1.51,0.94-2.26c0.22-0.51,0.45-1,0.7-1.5c0.29-0.56,0.58-1.13,0.9-1.67c0.18-0.3,0.42-0.58,0.66-0.85
			c0.28-0.3,0.72-0.23,0.95,0.14c0.21,0.35,0.45,0.7,0.56,1.08c0.08,0.25-0.01,0.57-0.08,0.84c-0.09,0.33-0.32,0.63-0.36,0.95
			c-0.13,0.99-0.76,1.68-1.29,2.46c-0.5,0.75-0.98,1.53-1.37,2.35C79.6,31.36,80.14,32.02,81.19,32.01z"/>
		<path d="M154.5,20.81c-0.17,1.14-0.25,2.12-0.5,3.05c-0.11,0.4-0.55,0.72-0.89,1.03c-0.48,0.44-0.47,0.55-0.03,1.06
			c0.19,0.22,0.24,0.55,0.37,0.83c0.12,0.26,0.21,0.55,0.37,0.78c0.33,0.46,0.34,0.82-0.01,1.28c-0.34,0.44-0.61,0.91-0.65,1.5
			c-0.01,0.21-0.22,0.41-0.36,0.59c-0.08,0.1-0.22,0.13-0.33,0.21c-0.69,0.51-1.12,0.51-1.8,0.03c-0.37-0.26-0.42-0.95-0.09-1.31
			c0.27-0.3,0.35-1.06,0.09-1.33c-0.1-0.1-0.39-0.11-0.55-0.05c-0.42,0.17-0.7,0.92-0.53,1.56c0.18,0.66,0.24,1.31,0.07,1.98
			c-0.03,0.11-0.02,0.23,0.01,0.34c0.3,1.05-0.14,1.82-0.93,2.46c-0.11,0.09-0.25,0.16-0.35,0.27c-0.3,0.33-0.62,0.77-1.09,0.57
			c-0.56-0.24-1.08-0.6-1.29-1.25c-0.15-0.48-0.39-0.93-0.53-1.42c-0.08-0.28-0.12-0.62-0.05-0.9c0.18-0.77,0.34-1.57,0.67-2.28
			c0.42-0.91,0.22-1.83,0.26-2.74c0.03-0.84-0.63-1.24-1.42-0.88c-0.54,0.25-1,0.01-1.45-0.15c-0.44-0.15-0.6-0.88-0.3-1.22
			c0.4-0.47,0.84-0.92,1.3-1.35c0.53-0.49,1.12-0.92,1.65-1.4c0.2-0.19,0.33-0.46,0.48-0.71c0.3-0.51,0.61-1.02,0.89-1.55
			c0.32-0.6,0.62-1.21,0.91-1.82c0.57-1.24,1.12-2.49,1.69-3.73c0.18-0.4,0.37-0.8,0.6-1.17c0.44-0.72,0.24-1.42-0.01-2.11
			c-0.15-0.39-0.41-0.74-0.56-1.13c-0.1-0.25-0.22-0.66-0.1-0.8c0.22-0.25,0.61-0.48,0.94-0.49c0.84-0.04,1.69,0,2.53,0.09
			c0.91,0.1,1.66,0.59,2.04,1.41c0.34,0.74,0.62,1.53,0.52,2.41c-0.06,0.47-0.13,0.89-0.41,1.27c-0.76,1.04-1.45,2.12-2.26,3.12
			c-0.39,0.48-1,0.77-1.47,1.19c-0.66,0.58-1.3,1.18-1.92,1.81c-0.89,0.9-1.75,1.83-2.61,2.76c-0.12,0.12-0.2,0.31-0.23,0.47
			c-0.07,0.36,0.2,0.59,0.53,0.42c0.46-0.25,0.93-0.53,1.31-0.89c0.58-0.54,1.07-1.18,1.66-1.71c0.55-0.5,1.18-0.92,1.79-1.36
			c0.57-0.42,1.52-0.38,1.81,0.14C154.44,20.04,154.44,20.52,154.5,20.81z M151.19,26.6c-0.08-0.09-0.16-0.24-0.28-0.33
			c-0.38-0.28-0.76-0.54-1.16-0.79c-0.52-0.33-1.36-0.19-1.77,0.28c-0.24,0.28-0.3,0.52,0.06,0.77c0.4,0.27,0.77,0.59,1.16,0.88
			c0.4,0.31,1.81-0.13,1.95-0.61C151.17,26.75,151.18,26.7,151.19,26.6z"/>
		<path d="M179.34,29.56c0.21,0.1,0.51,0.14,0.62,0.31c0.2,0.28,0.13,0.6-0.12,0.89c-0.11,0.13-0.19,0.46-0.11,0.55
			c0.12,0.13,0.43,0.24,0.58,0.17c0.53-0.23,1.04-0.52,1.52-0.84c0.13-0.09,0.22-0.47,0.15-0.55c-0.15-0.16-0.42-0.2-0.64-0.28
			c-0.05-0.02-0.12,0.07-0.18,0.07c-0.18-0.02-0.35-0.06-0.53-0.1c0.04-0.18,0.02-0.41,0.13-0.52c0.43-0.44,0.91-0.83,1.37-1.24
			c0.27-0.24,0.37-0.48,0.07-0.78c-0.22-0.22-0.38-0.58-0.63-0.65c-0.16-0.04-0.41,0.39-0.65,0.53c-0.42,0.24-0.86,0.45-1.32,0.63
			c-0.29,0.11-1.21-0.33-1.39-0.62c-0.36-0.58-0.35-0.72,0.12-1.35c0.3-0.4,0.57-0.82,0.88-1.22c0.36-0.47,1.15-0.68,1.72-0.47
			c0.2,0.07,0.4,0.14,0.59,0.23c0.38,0.16,0.6,0.03,0.92-0.26c0.66-0.58,0.64-1.14,0.39-1.9c-0.19-0.6,0.04-1.45,0.93-1.62
			c0.26-0.05,0.49-0.26,0.74-0.37c0.36-0.17,0.66-0.1,0.89,0.25c0.14,0.22,0.29,0.43,0.43,0.66c0.35,0.56,0.84,0.89,1.49,1.01
			c0.3,0.06,0.6,0.17,0.88,0.3c0.54,0.25,0.59,0.74,0.2,1.18c-0.44,0.51-0.84,1.06-1.23,1.62c-0.5,0.72-0.37,1.42,0.21,2.03
			c0.31,0.33,0.33,0.65,0.13,1.02c-0.19,0.38-0.4,0.75-0.57,1.13c-0.24,0.55-0.76,0.79-1.21,1.09c-1.06,0.7-1.33,1.76-1.38,2.91
			c-0.05,1.2-0.06,2.41-0.11,3.61c-0.01,0.14-0.11,0.29-0.19,0.42c-0.08,0.12-0.21,0.21-0.29,0.33c-0.64,0.94-1.89,0.91-2.46-0.11
			c-0.18-0.33-0.23-0.74-0.32-1.11c-0.1-0.45-0.06-0.94-0.65-1.15c-0.31-0.11-0.33-0.73-0.07-0.93c0.26-0.19,0.54-0.36,0.82-0.52
			c0.38-0.21,0.6-0.69,0.43-0.97c-0.22-0.36-0.65-0.42-1.08-0.18c-0.93,0.53-1.85,1.06-2.79,1.58c-0.97,0.54-0.95,0.52-1.37-0.52
			c-0.25-0.6-0.17-1.12,0.17-1.62c0.27-0.4,0.6-0.76,0.91-1.14c0.26-0.31,0.5-0.64,0.79-0.92
			C178.45,29.85,178.75,29.44,179.34,29.56z M185.94,23.34c-0.17,0.28-0.33,0.44-0.35,0.6c-0.01,0.09,0.26,0.31,0.33,0.28
			c0.14-0.05,0.3-0.22,0.33-0.37C186.27,23.75,186.1,23.6,185.94,23.34z M185.75,28.25c-0.23-0.18-0.39-0.37-0.47-0.35
			c-0.15,0.05-0.31,0.22-0.35,0.37c-0.02,0.09,0.2,0.34,0.3,0.33C185.38,28.59,185.51,28.42,185.75,28.25z"/>
		<path d="M159.96,35.97c0-1.34-0.03-2.68,0.01-4.01c0.03-1.17,0.15-2.34,0.23-3.51c0.01-0.19,0.03-0.39,0.02-0.59
			c-0.07-0.83-0.53-1.19-1.33-0.96c-0.56,0.17-1.09,0.43-1.6,0.7c-0.63,0.33-1.84,0.19-2.31-0.32c-0.36-0.39-0.31-0.94,0.13-1.22
			c0.28-0.17,0.57-0.34,0.88-0.41c0.87-0.2,1.74-0.37,2.62-0.51c0.73-0.11,1.12-0.79,0.76-1.43c-0.11-0.2-0.23-0.39-0.38-0.57
			c-0.48-0.58-0.24-1.31,0.51-1.4c1.09-0.14,2.2-0.18,3.29-0.33c0.46-0.07,0.94-0.26,1.34-0.52c0.87-0.55,1.78-0.73,2.77-0.49
			c0.1,0.02,0.19,0.04,0.29,0.06c0.76,0.13,0.98,0.54,0.87,1.31c-0.2,1.4-0.97,2.49-1.79,3.55c-0.35,0.45-0.85,0.79-1.3,1.17
			c-0.36,0.3-0.76,0.56-1.11,0.87c-0.69,0.61-0.8,1.4-0.57,2.24c0.54,2,0.33,4.03,0.24,6.05c-0.03,0.66-0.19,1.38-0.52,1.95
			c-0.38,0.66-0.97,1.21-1.52,1.76c-0.27,0.27-0.88,0.03-1.06-0.46c-0.2-0.52-0.31-1.09-0.39-1.65c-0.06-0.42-0.01-0.85-0.01-1.27
			C160,35.97,159.98,35.97,159.96,35.97z M164.23,23.87c0.29-0.43,0.56-0.7,0.65-1.02c0.1-0.32-0.32-0.8-0.51-0.68
			c-0.35,0.21-0.64,0.53-0.96,0.8C163.65,23.22,163.89,23.49,164.23,23.87z"/>
		<path d="M212.84,35.77c-0.45-0.14-0.9-0.31-1.37-0.42c-0.42-0.11-0.86-0.16-1.29-0.24c-0.11-0.02-0.24-0.02-0.33-0.08
			c-0.21-0.14-0.4-0.32-0.59-0.48c0.26-0.11,0.54-0.34,0.79-0.31c1.63,0.22,3.08-0.14,4.29-1.28c0.26-0.25,0.45-0.59,0.62-0.92
			c0.31-0.62,0.58-1.26,0.87-1.9c0.17-0.38,0.09-0.7-0.23-0.96c-0.32-0.26-0.61-0.09-0.82,0.14c-0.47,0.49-0.87,1.05-1.35,1.52
			c-0.83,0.83-1.5,0.89-2.49,0.28c-0.15-0.09-0.27-0.24-0.38-0.37c-0.38-0.46-0.73-0.94-1.13-1.39c-0.22-0.25-0.42-0.49-0.24-0.82
			c0.18-0.34,0.5-0.25,0.82-0.22c0.99,0.1,1.95,0.31,2.98,0.18c0.77-0.1,1.42-0.41,2.08-0.69c0.87-0.37,1.46-1.13,1.77-2.04
			c0.22-0.65,0.41-1.31,0.54-1.98c0.09-0.47,0.01-0.97,0.06-1.45c0.15-1.34,0.31-2.68,0.5-4.02c0.15-1.04-0.04-2-0.58-2.91
			c-0.2-0.34-0.45-0.66-0.55-1.03c-0.08-0.3-0.05-0.69,0.1-0.95c0.09-0.16,0.53-0.23,0.76-0.17c0.38,0.11,0.77,0.3,1.05,0.57
			c0.84,0.81,1.63,1.68,2.45,2.52c0.36,0.37,0.4,0.8,0.32,1.27c-0.1,0.61-0.15,1.23-0.3,1.83c-0.15,0.62-0.41,1.23-0.6,1.84
			c-0.18,0.57-0.35,1.14-0.52,1.71c-0.06,0.21-0.15,0.42-0.2,0.63c-0.09,0.37-0.21,0.75-0.22,1.13c-0.01,0.37,0.43,0.59,0.82,0.42
			c0.53-0.24,1.06-0.51,1.55-0.83c0.45-0.3,0.7-0.73,0.75-1.31c0.06-0.72,0.31-0.94,1.03-0.98c0.52-0.03,1.05-0.08,1.56-0.03
			c0.95,0.11,1.25,0.81,0.66,1.55c-0.22,0.27-0.56,0.47-0.87,0.66c-0.75,0.45-1.51,0.91-2.29,1.3c-0.93,0.47-1.92,0.83-2.83,1.35
			c-0.52,0.29-1.03,0.72-1.34,1.22c-0.37,0.61-0.61,1.34-0.75,2.05c-0.23,1.16-1.01,1.99-1.6,2.94c-0.08,0.14-0.18,0.27-0.27,0.41
			c-0.2,0.3-0.35,0.65-0.61,0.87C214.72,35.04,213.98,35.74,212.84,35.77z"/>
		<path d="M195.21,34.46c-1.84,0-3.68,0-5.53,0c-0.89,0-1.65-0.82-1.51-1.7c0.21-1.36,0.49-2.72,0.71-4.08
			c0.12-0.7,0.18-1.42,0.27-2.13c0.03-0.19,0.07-0.39,0.16-0.55c0.22-0.36,0.44-0.69,0.19-1.13c-0.04-0.06,0.06-0.28,0.14-0.31
			c0.11-0.04,0.33-0.02,0.38,0.06c0.4,0.56,1.03,0.94,1.16,1.7c0.06,0.36,0.28,0.71,0.47,1.04c0.34,0.6,0.07,1.07-0.22,1.59
			c-0.32,0.59-0.59,1.22-0.84,1.85c-0.42,1.04,0.29,1.53,1.23,1.71c0.6,0.11,1.26-0.01,1.88-0.11c0.64-0.11,1.27-0.3,1.89-0.5
			c0.19-0.06,0.35-0.25,0.5-0.42s0.22-0.43,0.39-0.55c0.65-0.48,0.69-1.17,0.68-1.87c0-0.23-0.07-0.48-0.19-0.68
			c-0.22-0.36-0.12-0.63,0.18-0.85c0.33-0.23,0.52,0.05,0.68,0.26c0.19,0.26,0.31,0.57,0.46,0.86c0.2,0.38,0.45,0.75,0.59,1.15
			c0.23,0.66,0.44,1.33,0.56,2.01c0.08,0.46,0.02,0.96-0.04,1.43c-0.02,0.15-0.21,0.37-0.37,0.41c-1.27,0.34-2.49,0.86-3.82,0.91
			C195.22,34.54,195.21,34.5,195.21,34.46z"/>
		<path d="M109.5,34.9c0.09-0.27,0.19-0.54,0.28-0.81c0.13-0.38,0.28-0.76,0.38-1.15c0.08-0.33,0-0.61-0.31-0.85
			c-0.16-0.12-0.3-0.54-0.22-0.65c0.13-0.18,0.46-0.3,0.7-0.29c0.4,0.01,0.8,0.15,1.19,0.23c0.85,0.18,1.41,0.79,1.97,1.37
			c0.55,0.57,1.19,0.81,1.98,0.68c0.33-0.05,0.68-0.11,1.01-0.07c0.27,0.03,0.72,0.14,0.74,0.28c0.06,0.3-0.01,0.72-0.2,0.95
			c-0.46,0.56-0.97,1.11-1.56,1.53c-0.55,0.39-0.85,0.94-1.18,1.47c-0.42,0.67-1.06,0.87-1.76,0.99c-0.27,0.05-0.55,0.05-0.82,0.1
			c-1.14,0.23-1.81-0.31-1.88-1.46c-0.04-0.76-0.16-1.52-0.25-2.28C109.55,34.92,109.52,34.91,109.5,34.9z"/>
		<path d="M131.23,27.08c0.15,0.03,0.43,0.06,0.69,0.16c0.36,0.14,0.52,0.41,0.45,0.82c-0.23,1.2-0.23,1.2,0.76,1.82
			c0.44,0.28,0.88,0.56,1.31,0.85c0.67,0.44,0.84,1.31,0.4,2c-0.15,0.23-0.29,0.48-0.36,0.74c-0.1,0.34-0.32,0.47-0.63,0.53
			c-0.45,0.09-0.89,0.21-1.34,0.26c-1.04,0.12-1.62,0.99-2.42,1.49c-0.56,0.35-0.97,0.48-1.31,0.16c-0.38-0.36-0.38-0.98-0.02-1.48
			c0.29-0.39,0.57-0.79,0.86-1.19c0.23-0.3,0.28-0.62,0.11-0.96c-0.18-0.37-0.34-0.74-0.52-1.1c-0.43-0.84-0.56-1.66,0.03-2.49
			c0.13-0.18,0.25-0.38,0.34-0.59C129.92,27.25,130.16,27.09,131.23,27.08z"/>
		<path d="M221.14,29.13c0.6,0.33,1.25,0.63,1.82,1.04c0.48,0.35,0.88,0.82,1.3,1.24c0.69,0.7,1.58,0.87,2.5,0.91
			c0.41,0.02,0.81,0.01,1.22,0.01s0.67,0.26,0.73,0.6c0.05,0.24-0.05,0.56-0.18,0.78c-0.39,0.65-0.97,1.07-1.71,1.3
			c-0.31,0.1-0.55,0.38-0.83,0.58c-0.43,0.29-0.84,0.61-1.29,0.85c-0.49,0.26-0.99-0.05-1.31-0.32c-0.39-0.34-0.6-0.89-0.88-1.36
			c-0.26-0.44-0.46-0.93-0.77-1.34c-0.38-0.5-0.66-1-0.84-1.62c-0.18-0.6-0.6-1.14-1-1.64c-0.21-0.27-0.21-0.45,0.04-0.58
			C220.29,29.4,220.67,29.3,221.14,29.13z"/>
		<path d="M159.67,20.45c-0.54-0.09-1.28,0.1-1.96-0.3c-0.44-0.26-0.7-0.57-0.67-1.09c0.03-0.49,0.31-0.74,0.74-0.93
			c1.69-0.76,3.44-1.4,4.9-2.58c0.14-0.11,0.31-0.21,0.4-0.36c0.33-0.54,0.9-0.78,1.43-0.95c0.38-0.12,0.88,0.05,1.29,0.19
			c0.41,0.14,0.77,0.39,0.76,0.96c-0.02,0.72-0.13,1.36-0.85,1.73c-0.9,0.47-1.81,0.91-2.66,1.45c-0.5,0.32-0.88,0.81-1.32,1.22
			C161.2,20.29,160.56,20.5,159.67,20.45z"/>
		<path d="M195.91,18.72c0.26,0.18,0.63,0.3,0.76,0.56c0.11,0.21,0.03,0.62-0.12,0.84c-0.73,1.07-1.47,2.14-2.29,3.14
			c-0.54,0.67-0.54,1.3-0.25,2.04c0.28,0.7-0.21,1.57-0.95,1.74c-0.85,0.19-1.3-0.32-1.14-1.16c0.1-0.53,0.08-1.08-0.42-1.51
			c-0.59-0.49-0.56-0.9,0.02-1.4c0.4-0.35,0.85-0.66,1.18-1.07c0.21-0.26,0.38-0.69,0.33-1.01c-0.13-0.82-0.15-1.05,0.57-1.39
			C194.31,19.16,195.08,18.99,195.91,18.72z"/>
		<path d="M178.19,19.08c0.19-0.39,0.48-1.04,0.83-1.66c0.22-0.39,0.48-0.79,0.81-1.09c0.49-0.46,1.04-0.87,1.59-1.26
			c0.12-0.09,0.4-0.11,0.48-0.04c0.11,0.1,0.21,0.39,0.14,0.5c-0.46,0.79-0.17,1.45,0.26,2.14c0.32,0.5,0.34,1.01-0.11,1.52
			c-0.39,0.43-0.65,0.98-1.04,1.4c-0.19,0.2-0.56,0.25-0.86,0.32c-0.17,0.04-0.36-0.03-0.53-0.01
			C178.93,20.95,178.17,20.22,178.19,19.08z"/>
		<path d="M192.37,15.93c-1.13-0.13-1.1-0.12-0.65-1.12c0.17-0.39,0.17-0.89,0.16-1.33c-0.03-0.69,0.14-1.02,0.82-1.16
			c0.73-0.15,1.47-0.24,2.21-0.35c0.08-0.01,0.16-0.02,0.24-0.02c1.03-0.06,1.43,0.12,1.52,0.66c0.19,1.21-0.28,2.13-1.18,2.39
			c-0.74,0.21-1.47,0.47-2.2,0.7C192.99,15.79,192.67,15.86,192.37,15.93z"/>
		<path d="M187.39,18.26c-0.39-0.15-0.77-0.33-1.17-0.45c-0.51-0.14-1.03-0.27-1.55-0.32c-0.48-0.04-0.81-0.2-0.92-0.63
			c-0.11-0.43,0.12-0.93,0.52-1.09c0.48-0.2,0.96-0.4,1.46-0.57c0.19-0.06,0.42-0.07,0.62-0.03c0.7,0.13,1.36,0.07,2-0.24
			c0.41-0.2,0.79-0.06,1.08,0.21c0.1,0.1,0.1,0.41,0.02,0.58c-0.22,0.5-0.52,0.97-0.73,1.47C188.47,17.83,188.05,18.18,187.39,18.26
			z"/>
	</g>
</g>
<g>
	<path class="st2" d="M76.63,57.22c-0.13-0.06-0.14-0.1-0.14-0.35c0-0.46,0.04-0.83,0.05-0.98c0.01-0.1,0.03-0.15,0.07-0.15
		c0.06,0,0.06,0.03,0.06,0.1c0,0.08,0,0.21,0.03,0.34c0.14,0.68,0.75,0.94,1.37,0.94c0.89,0,1.32-0.64,1.32-1.23
		c0-0.64-0.27-1.01-1.06-1.66l-0.42-0.34c-0.98-0.8-1.2-1.38-1.2-2c0-0.99,0.74-1.66,1.91-1.66c0.36,0,0.63,0.04,0.86,0.09
		c0.18,0.04,0.25,0.05,0.32,0.05s0.09,0.02,0.09,0.06c0,0.05-0.04,0.35-0.04,0.98c0,0.15-0.02,0.21-0.06,0.21
		c-0.06,0-0.06-0.05-0.07-0.12c-0.01-0.11-0.06-0.36-0.12-0.46c-0.06-0.1-0.3-0.49-1.15-0.49c-0.64,0-1.14,0.4-1.14,1.07
		c0,0.53,0.24,0.86,1.13,1.55l0.26,0.2c1.09,0.86,1.35,1.43,1.35,2.17c0,0.38-0.15,1.08-0.78,1.53c-0.4,0.28-0.9,0.39-1.39,0.39
		C77.43,57.47,77,57.4,76.63,57.22z"/>
	<path class="st2" d="M88.15,55.06c0,0.76,0.01,1.38,0.05,1.7c0.03,0.23,0.05,0.38,0.3,0.42c0.11,0.02,0.3,0.04,0.36,0.04
		c0.06,0,0.07,0.04,0.07,0.06c0,0.04-0.05,0.06-0.14,0.06c-0.44,0-0.96-0.03-1.01-0.03c-0.04,0-0.56,0.03-0.8,0.03
		c-0.09,0-0.13-0.02-0.13-0.06c0-0.03,0.02-0.06,0.06-0.06c0.07,0,0.17-0.02,0.24-0.04c0.17-0.04,0.19-0.19,0.22-0.42
		c0.04-0.32,0.04-0.91,0.04-1.67v-0.78c0-0.04-0.02-0.05-0.05-0.05h-3.39c-0.03,0-0.05,0.01-0.05,0.05v0.78c0,0.76,0,1.36,0.04,1.68
		c0.03,0.23,0.06,0.38,0.3,0.42c0.12,0.02,0.3,0.04,0.37,0.04c0.05,0,0.06,0.04,0.06,0.06c0,0.04-0.04,0.06-0.13,0.06
		c-0.45,0-0.97-0.03-1.01-0.03c-0.05,0-0.56,0.03-0.81,0.03c-0.08,0-0.13-0.02-0.13-0.06c0-0.03,0.02-0.06,0.06-0.06
		c0.07,0,0.18-0.02,0.25-0.04c0.16-0.04,0.18-0.18,0.21-0.42c0.05-0.32,0.05-0.94,0.05-1.7v-1.38c0-1.22,0-1.44-0.02-1.69
		c-0.02-0.27-0.06-0.4-0.33-0.43c-0.06-0.01-0.2-0.02-0.28-0.02c-0.03,0-0.06-0.04-0.06-0.06c0-0.05,0.04-0.06,0.13-0.06
		c0.37,0,0.89,0.02,0.93,0.02c0.04,0,0.55-0.02,0.8-0.02c0.09,0,0.13,0.02,0.13,0.06c0,0.03-0.04,0.06-0.06,0.06
		c-0.06,0-0.11,0-0.2,0.02c-0.22,0.05-0.27,0.16-0.29,0.43c-0.01,0.25-0.01,0.49-0.01,1.71v0.17c0,0.05,0.02,0.05,0.05,0.05h3.39
		c0.03,0,0.05,0,0.05-0.05v-0.17c0-1.22-0.01-1.46-0.02-1.71c-0.02-0.27-0.06-0.4-0.32-0.43c-0.06-0.01-0.2-0.02-0.28-0.02
		c-0.04,0-0.06-0.04-0.06-0.06c0-0.05,0.04-0.06,0.13-0.06c0.36,0,0.89,0.02,0.92,0.02c0.05,0,0.56-0.02,0.8-0.02
		c0.09,0,0.14,0.02,0.14,0.06c0,0.03-0.04,0.06-0.07,0.06c-0.06,0-0.1,0-0.2,0.02c-0.21,0.05-0.26,0.16-0.28,0.43
		c-0.02,0.25-0.02,0.47-0.02,1.69V55.06z"/>
	<path class="st2" d="M93.18,51.56c0.1-0.26,0.14-0.3,0.19-0.3c0.08,0,0.11,0.11,0.19,0.29c0.15,0.33,1.45,3.57,1.95,4.76
		c0.3,0.7,0.52,0.8,0.69,0.86c0.12,0.04,0.24,0.05,0.32,0.05c0.05,0,0.1,0.02,0.1,0.06c0,0.05-0.09,0.06-0.18,0.06
		c-0.12,0-0.72,0-1.28-0.02c-0.16-0.01-0.29-0.01-0.29-0.06c0-0.04,0.02-0.04,0.06-0.06c0.05-0.02,0.13-0.08,0.07-0.21l-0.73-1.8
		c-0.02-0.04-0.03-0.05-0.07-0.05h-1.87c-0.04,0-0.06,0.02-0.08,0.06l-0.46,1.26c-0.07,0.19-0.12,0.39-0.12,0.53
		c0,0.16,0.14,0.21,0.28,0.21h0.07c0.06,0,0.08,0.03,0.08,0.06c0,0.05-0.05,0.06-0.12,0.06c-0.19,0-0.64-0.03-0.73-0.03
		c-0.08,0-0.49,0.03-0.82,0.03c-0.1,0-0.16-0.02-0.16-0.06c0-0.04,0.04-0.06,0.07-0.06c0.06,0,0.18-0.01,0.24-0.02
		c0.37-0.05,0.53-0.32,0.68-0.72L93.18,51.56z M94.08,54.83c0.04,0,0.04-0.02,0.03-0.06l-0.8-2.15c-0.05-0.12-0.09-0.12-0.14,0
		l-0.76,2.15c-0.01,0.04,0,0.06,0.03,0.06H94.08z"/>
	<path class="st2" d="M98.97,56.27c0.02,0.65,0.09,0.84,0.31,0.9c0.15,0.04,0.33,0.05,0.41,0.05c0.04,0,0.06,0.03,0.06,0.06
		c0,0.05-0.06,0.06-0.15,0.06c-0.46,0-0.78-0.03-0.86-0.03c-0.07,0-0.42,0.03-0.78,0.03c-0.08,0-0.13-0.01-0.13-0.06
		c0-0.04,0.03-0.06,0.06-0.06c0.06,0,0.21-0.01,0.33-0.05c0.2-0.06,0.23-0.27,0.23-0.98v-4.5c0-0.31,0.05-0.4,0.11-0.4
		c0.09,0,0.23,0.16,0.31,0.24c0.13,0.13,1.31,1.38,2.57,2.68c0.8,0.83,1.67,1.76,1.92,2.02l-0.08-3.93
		c-0.01-0.51-0.06-0.68-0.3-0.73c-0.15-0.03-0.33-0.04-0.4-0.04c-0.06,0-0.06-0.05-0.06-0.07c0-0.05,0.06-0.06,0.16-0.06
		c0.37,0,0.76,0.02,0.85,0.02s0.36-0.02,0.69-0.02c0.08,0,0.15,0.01,0.15,0.06c0,0.03-0.04,0.07-0.09,0.07c-0.04,0-0.1,0-0.19,0.02
		c-0.27,0.06-0.29,0.21-0.29,0.68l-0.02,4.6c0,0.52-0.01,0.56-0.06,0.56c-0.08,0-0.17-0.06-0.62-0.48
		c-0.08-0.07-1.26-1.23-2.11-2.12c-0.94-0.99-1.86-1.95-2.1-2.23L98.97,56.27z"/>
	<path class="st2" d="M107.06,53.67c0-1.22,0-1.44-0.02-1.69c-0.02-0.27-0.06-0.4-0.33-0.43c-0.06-0.01-0.2-0.02-0.28-0.02
		c-0.03,0-0.06-0.04-0.06-0.06c0-0.05,0.04-0.06,0.13-0.06c0.37,0,0.9,0.02,0.94,0.02c0.09,0,0.61-0.02,1.09-0.02
		c0.81,0,2.3-0.07,3.26,0.9c0.41,0.41,0.79,1.06,0.79,1.99c0,0.99-0.42,1.74-0.88,2.21c-0.35,0.36-1.08,0.9-2.46,0.9
		c-0.35,0-0.78-0.03-1.14-0.05c-0.35-0.03-0.63-0.05-0.66-0.05c-0.02,0-0.17,0.01-0.33,0.01c-0.17,0.01-0.36,0.02-0.49,0.02
		c-0.08,0-0.13-0.02-0.13-0.06c0-0.03,0.02-0.06,0.06-0.06c0.07,0,0.18-0.02,0.25-0.04c0.16-0.04,0.18-0.18,0.21-0.42
		c0.05-0.32,0.05-0.94,0.05-1.7V53.67z M107.8,54.52c0,0.83,0,1.56,0.01,1.71c0.01,0.19,0.03,0.48,0.09,0.56
		c0.1,0.15,0.39,0.31,1.35,0.31c0.75,0,1.41-0.25,1.9-0.71c0.42-0.4,0.64-1.14,0.64-1.86c0-1-0.43-1.63-0.77-1.97
		c-0.77-0.78-1.66-0.88-2.63-0.88c-0.16,0-0.42,0.03-0.49,0.06c-0.07,0.03-0.1,0.06-0.1,0.16V54.52z"/>
	<path class="st2" d="M117.76,51.29c1.83,0,3.21,1.12,3.21,2.94c0,1.75-1.3,3.2-3.26,3.2c-2.23,0-3.18-1.67-3.18-3.08
		C114.54,53.09,115.52,51.29,117.76,51.29z M117.94,57.12c0.73,0,2.2-0.39,2.2-2.66c0-1.88-1.14-2.87-2.43-2.87
		c-1.36,0-2.34,0.85-2.34,2.56C115.38,55.97,116.48,57.12,117.94,57.12z"/>
	<path class="st2" d="M123.94,56.27c0.02,0.65,0.09,0.84,0.31,0.9c0.15,0.04,0.33,0.05,0.41,0.05c0.04,0,0.06,0.03,0.06,0.06
		c0,0.05-0.06,0.06-0.15,0.06c-0.46,0-0.79-0.03-0.86-0.03s-0.42,0.03-0.78,0.03c-0.08,0-0.13-0.01-0.13-0.06
		c0-0.04,0.03-0.06,0.06-0.06c0.06,0,0.21-0.01,0.33-0.05c0.2-0.06,0.23-0.27,0.23-0.98v-4.5c0-0.31,0.05-0.4,0.11-0.4
		c0.09,0,0.23,0.16,0.31,0.24c0.13,0.13,1.31,1.38,2.57,2.68c0.8,0.83,1.67,1.76,1.92,2.02l-0.08-3.93
		c-0.01-0.51-0.06-0.68-0.3-0.73c-0.15-0.03-0.33-0.04-0.4-0.04c-0.06,0-0.06-0.05-0.06-0.07c0-0.05,0.06-0.06,0.16-0.06
		c0.37,0,0.76,0.02,0.85,0.02s0.36-0.02,0.69-0.02c0.08,0,0.15,0.01,0.15,0.06c0,0.03-0.04,0.07-0.09,0.07c-0.04,0-0.1,0-0.19,0.02
		c-0.27,0.06-0.29,0.21-0.29,0.68l-0.02,4.6c0,0.52-0.01,0.56-0.06,0.56c-0.08,0-0.17-0.06-0.62-0.48
		c-0.08-0.07-1.26-1.23-2.11-2.12c-0.94-0.99-1.86-1.95-2.1-2.23L123.94,56.27z"/>
	<path class="st2" d="M135.91,55.34c0-0.64-0.02-0.73-0.35-0.79c-0.07-0.01-0.2-0.02-0.28-0.02c-0.03,0-0.06-0.04-0.06-0.06
		c0-0.06,0.04-0.06,0.13-0.06c0.37,0,0.91,0.02,0.96,0.02c0.04,0,0.54-0.02,0.79-0.02c0.09,0,0.13,0.01,0.13,0.06
		c0,0.03-0.04,0.06-0.07,0.06c-0.05,0-0.11,0-0.2,0.02c-0.22,0.04-0.29,0.16-0.3,0.43c-0.01,0.25-0.01,0.48-0.01,0.81v0.88
		c0,0.36-0.01,0.37-0.11,0.42c-0.52,0.27-1.26,0.35-1.73,0.35c-0.62,0-1.77-0.07-2.68-0.84c-0.5-0.42-0.97-1.26-0.97-2.23
		c0-1.26,0.64-2.14,1.36-2.58c0.73-0.44,1.54-0.5,2.16-0.5c0.52,0,1.09,0.09,1.25,0.13c0.17,0.04,0.45,0.08,0.66,0.08
		c0.08,0,0.1,0.04,0.1,0.07c0,0.11-0.05,0.32-0.05,1.11c0,0.13-0.04,0.17-0.09,0.17c-0.05,0-0.06-0.05-0.06-0.12
		c-0.01-0.1-0.05-0.33-0.18-0.52c-0.2-0.3-0.82-0.61-1.87-0.61c-0.49,0-1.08,0.04-1.7,0.51c-0.47,0.36-0.8,1.06-0.8,1.98
		c0,1.11,0.57,1.9,0.86,2.17c0.65,0.6,1.33,0.82,2.08,0.82c0.29,0,0.66-0.03,0.88-0.15c0.1-0.06,0.17-0.09,0.17-0.24V55.34z"/>
	<path class="st2" d="M144.41,56.08c0.02,0.76,0.11,1,0.36,1.07c0.17,0.05,0.38,0.06,0.46,0.06c0.05,0,0.07,0.02,0.07,0.06
		c0,0.06-0.06,0.07-0.17,0.07c-0.53,0-0.9-0.03-0.98-0.03s-0.47,0.03-0.89,0.03c-0.09,0-0.15-0.01-0.15-0.07
		c0-0.04,0.03-0.06,0.07-0.06c0.07,0,0.24-0.01,0.38-0.06c0.23-0.06,0.28-0.33,0.28-1.17l0.01-5.29c0-0.36,0.03-0.46,0.1-0.46
		c0.07,0,0.23,0.2,0.32,0.3c0.14,0.16,1.51,1.64,2.94,3.17c0.91,0.98,1.92,2.1,2.22,2.41l-0.1-4.69c-0.01-0.6-0.07-0.8-0.36-0.88
		c-0.17-0.04-0.38-0.05-0.45-0.05c-0.06,0-0.07-0.03-0.07-0.06c0-0.06,0.07-0.06,0.18-0.06c0.42,0,0.86,0.03,0.96,0.03
		s0.41-0.03,0.78-0.03c0.1,0,0.17,0.01,0.17,0.06c0,0.04-0.04,0.06-0.1,0.06c-0.05,0-0.11,0-0.22,0.03
		c-0.3,0.06-0.34,0.27-0.34,0.82l-0.02,5.41c0,0.61-0.02,0.66-0.08,0.66c-0.07,0-0.18-0.1-0.67-0.59c-0.1-0.09-1.43-1.45-2.41-2.5
		c-1.07-1.15-2.11-2.32-2.41-2.65L144.41,56.08z"/>
	<path class="st2" d="M155.77,51.29c1.83,0,3.21,1.12,3.21,2.94c0,1.75-1.3,3.2-3.26,3.2c-2.22,0-3.18-1.67-3.18-3.08
		C152.55,53.09,153.53,51.29,155.77,51.29z M155.96,57.12c0.73,0,2.2-0.39,2.2-2.66c0-1.88-1.14-2.87-2.43-2.87
		c-1.36,0-2.34,0.85-2.34,2.56C153.39,55.97,154.49,57.12,155.96,57.12z"/>
	<path class="st2" d="M161.61,53.67c0-1.22,0-1.44-0.02-1.69c-0.02-0.27-0.06-0.4-0.33-0.43c-0.06-0.01-0.2-0.02-0.28-0.02
		c-0.03,0-0.06-0.04-0.06-0.06c0-0.05,0.04-0.06,0.13-0.06c0.37,0,0.91,0.02,0.96,0.02c0.08,0,0.77-0.02,1.02-0.02
		c0.52,0,1.09,0.05,1.51,0.34c0.2,0.15,0.56,0.53,0.56,1.07c0,0.58-0.24,1.14-1,1.79c0.66,0.83,1.23,1.54,1.7,2.03
		c0.43,0.44,0.7,0.52,0.9,0.54c0.16,0.03,0.24,0.03,0.29,0.03c0.05,0,0.07,0.04,0.07,0.06c0,0.05-0.05,0.06-0.19,0.06h-0.51
		c-0.46,0-0.67-0.05-0.87-0.16c-0.35-0.18-0.65-0.56-1.11-1.15c-0.34-0.42-0.7-0.93-0.88-1.14c-0.04-0.04-0.06-0.05-0.11-0.05
		l-1.03-0.02c-0.04,0-0.05,0.02-0.05,0.06v0.18c0,0.76,0,1.37,0.04,1.69c0.03,0.23,0.07,0.38,0.32,0.42
		c0.11,0.02,0.29,0.04,0.36,0.04c0.06,0,0.06,0.04,0.06,0.06c0,0.04-0.04,0.06-0.13,0.06c-0.44,0-0.96-0.03-1-0.03
		c-0.01,0-0.55,0.03-0.8,0.03c-0.08,0-0.13-0.02-0.13-0.06c0-0.03,0.02-0.06,0.06-0.06c0.07,0,0.18-0.02,0.25-0.04
		c0.16-0.04,0.17-0.18,0.21-0.42c0.05-0.32,0.05-0.94,0.05-1.7V53.67z M162.31,54.34c0,0.05,0.02,0.07,0.05,0.1
		c0.12,0.06,0.54,0.12,0.9,0.12c0.19,0,0.42-0.01,0.61-0.14c0.28-0.18,0.49-0.6,0.49-1.2c0-0.98-0.54-1.54-1.4-1.54
		c-0.24,0-0.5,0.03-0.58,0.05c-0.04,0.02-0.06,0.05-0.06,0.09V54.34z"/>
	<path class="st2" d="M174.83,56.32c0.03,0.28,0.08,0.7,0.42,0.81c0.23,0.07,0.44,0.07,0.53,0.07c0.04,0,0.06,0.02,0.06,0.06
		c0,0.05-0.07,0.07-0.17,0.07c-0.18,0-1.09-0.02-1.38-0.05c-0.19-0.02-0.23-0.05-0.23-0.08c0-0.03,0.02-0.06,0.06-0.06
		c0.05-0.01,0.05-0.13,0.04-0.28l-0.39-3.97h-0.02l-1.96,4.01c-0.17,0.34-0.21,0.42-0.29,0.42c-0.07,0-0.12-0.07-0.28-0.36
		c-0.21-0.39-0.75-1.39-0.95-1.82c-0.24-0.5-0.9-1.82-1.03-2.14h-0.04l-0.31,3.54c-0.01,0.12-0.01,0.27-0.01,0.4
		c0,0.12,0.07,0.19,0.19,0.22c0.14,0.04,0.26,0.05,0.31,0.05c0.03,0,0.06,0.03,0.06,0.06c0,0.06-0.06,0.07-0.15,0.07
		c-0.3,0-0.69-0.03-0.76-0.03c-0.07,0-0.46,0.03-0.68,0.03c-0.08,0-0.14-0.02-0.14-0.07c0-0.03,0.04-0.06,0.08-0.06
		c0.06,0,0.12-0.01,0.24-0.03c0.27-0.05,0.28-0.33,0.31-0.63l0.59-5.12c0.01-0.08,0.05-0.14,0.09-0.14c0.05,0,0.12,0.03,0.17,0.12
		l2.46,4.87l2.36-4.86c0.04-0.07,0.07-0.13,0.13-0.13c0.05,0,0.1,0.06,0.12,0.21L174.83,56.32z"/>
	<path class="st2" d="M179.61,51.56c0.1-0.26,0.14-0.3,0.19-0.3c0.08,0,0.11,0.11,0.19,0.29c0.15,0.33,1.45,3.57,1.95,4.76
		c0.29,0.7,0.52,0.8,0.69,0.86c0.12,0.04,0.24,0.05,0.32,0.05c0.05,0,0.1,0.02,0.1,0.06c0,0.05-0.09,0.06-0.18,0.06
		c-0.12,0-0.72,0-1.28-0.02c-0.16-0.01-0.29-0.01-0.29-0.06c0-0.04,0.02-0.04,0.06-0.06c0.05-0.02,0.13-0.08,0.07-0.21l-0.73-1.8
		c-0.02-0.04-0.03-0.05-0.07-0.05h-1.87c-0.04,0-0.06,0.02-0.08,0.06l-0.46,1.26c-0.07,0.19-0.12,0.39-0.12,0.53
		c0,0.16,0.14,0.21,0.28,0.21h0.07c0.06,0,0.08,0.03,0.08,0.06c0,0.05-0.05,0.06-0.12,0.06c-0.19,0-0.64-0.03-0.73-0.03
		c-0.08,0-0.49,0.03-0.82,0.03c-0.1,0-0.16-0.02-0.16-0.06c0-0.04,0.04-0.06,0.07-0.06c0.06,0,0.17-0.01,0.24-0.02
		c0.37-0.05,0.53-0.32,0.68-0.72L179.61,51.56z M180.51,54.83c0.04,0,0.04-0.02,0.03-0.06l-0.8-2.15c-0.05-0.12-0.09-0.12-0.14,0
		l-0.76,2.15c-0.01,0.04,0,0.06,0.03,0.06H180.51z"/>
	<path class="st2" d="M185.8,55.08c0,1.15,0.02,1.62,0.17,1.76c0.13,0.13,0.44,0.18,1.08,0.18c0.42,0,0.78-0.01,0.98-0.24
		c0.1-0.12,0.17-0.29,0.19-0.44c0.01-0.06,0.04-0.1,0.08-0.1c0.04,0,0.06,0.04,0.06,0.12c0,0.08-0.06,0.55-0.12,0.78
		c-0.06,0.18-0.08,0.21-0.52,0.21c-0.58,0-1.03-0.01-1.41-0.03c-0.37-0.01-0.65-0.02-0.89-0.02c-0.04,0-0.18,0-0.33,0.01
		c-0.17,0.01-0.34,0.02-0.47,0.02c-0.08,0-0.13-0.02-0.13-0.06c0-0.03,0.02-0.06,0.06-0.06c0.07,0,0.18-0.02,0.25-0.04
		c0.16-0.04,0.17-0.18,0.21-0.42c0.05-0.32,0.05-0.94,0.05-1.7v-1.38c0-1.22,0-1.44-0.02-1.69c-0.02-0.27-0.06-0.4-0.33-0.43
		c-0.06-0.01-0.2-0.02-0.28-0.02c-0.03,0-0.06-0.04-0.06-0.06c0-0.05,0.04-0.06,0.13-0.06c0.37,0,0.88,0.02,0.92,0.02
		c0.04,0,0.65-0.02,0.9-0.02c0.08,0,0.13,0.02,0.13,0.06c0,0.03-0.04,0.06-0.06,0.06c-0.06,0-0.18,0.01-0.27,0.02
		c-0.24,0.05-0.29,0.17-0.3,0.44c-0.01,0.25-0.01,0.47-0.01,1.69V55.08z"/>
	<path class="st2" d="M194.53,53.04c0-1.44,0-1.7-0.02-1.99c-0.02-0.31-0.09-0.46-0.4-0.53c-0.07-0.02-0.23-0.03-0.31-0.03
		c-0.04,0-0.07-0.02-0.07-0.06c0-0.06,0.05-0.07,0.15-0.07c0.42,0,0.98,0.03,1.06,0.03s0.64-0.03,0.91-0.03
		c0.1,0,0.15,0.02,0.15,0.07c0,0.04-0.04,0.06-0.07,0.06c-0.06,0-0.12,0.01-0.23,0.03c-0.25,0.04-0.32,0.2-0.34,0.53
		c-0.02,0.3-0.02,0.55-0.02,1.99v1.29c0,1.33,0.29,1.9,0.69,2.28c0.45,0.42,0.87,0.51,1.39,0.51c0.56,0,1.12-0.27,1.45-0.66
		c0.42-0.53,0.54-1.31,0.54-2.26v-1.15c0-1.44,0-1.7-0.02-1.99c-0.02-0.31-0.09-0.46-0.4-0.53c-0.07-0.02-0.23-0.03-0.31-0.03
		c-0.04,0-0.07-0.02-0.07-0.06c0-0.06,0.05-0.07,0.15-0.07c0.42,0,0.92,0.03,0.98,0.03c0.07,0,0.5-0.03,0.78-0.03
		c0.1,0,0.15,0.02,0.15,0.07c0,0.04-0.04,0.06-0.07,0.06c-0.06,0-0.12,0.01-0.23,0.03c-0.25,0.06-0.32,0.2-0.34,0.53
		c-0.02,0.3-0.02,0.55-0.02,1.99v0.99c0,1-0.11,2.1-0.85,2.76c-0.66,0.59-1.36,0.68-1.9,0.68c-0.31,0-1.25-0.04-1.9-0.66
		c-0.45-0.43-0.8-1.08-0.8-2.43V53.04z"/>
	<path class="st2" d="M203.51,56.27c0.02,0.65,0.09,0.84,0.31,0.9c0.15,0.04,0.33,0.05,0.41,0.05c0.04,0,0.07,0.03,0.07,0.06
		c0,0.05-0.06,0.06-0.15,0.06c-0.46,0-0.78-0.03-0.86-0.03s-0.42,0.03-0.78,0.03c-0.08,0-0.13-0.01-0.13-0.06
		c0-0.04,0.03-0.06,0.06-0.06c0.07,0,0.21-0.01,0.33-0.05c0.2-0.06,0.23-0.27,0.23-0.98v-4.5c0-0.31,0.05-0.4,0.11-0.4
		c0.09,0,0.23,0.16,0.31,0.24c0.13,0.13,1.31,1.38,2.57,2.68c0.8,0.83,1.67,1.76,1.92,2.02l-0.08-3.93
		c-0.01-0.51-0.06-0.68-0.3-0.73c-0.15-0.03-0.33-0.04-0.4-0.04c-0.06,0-0.07-0.05-0.07-0.07c0-0.05,0.07-0.06,0.16-0.06
		c0.37,0,0.76,0.02,0.85,0.02c0.09,0,0.36-0.02,0.69-0.02c0.08,0,0.15,0.01,0.15,0.06c0,0.03-0.04,0.07-0.09,0.07
		c-0.04,0-0.1,0-0.19,0.02c-0.27,0.06-0.29,0.21-0.29,0.68l-0.02,4.6c0,0.52-0.01,0.56-0.06,0.56c-0.08,0-0.17-0.06-0.62-0.48
		c-0.08-0.07-1.26-1.23-2.11-2.12c-0.94-0.99-1.86-1.95-2.11-2.23L203.51,56.27z"/>
	<path class="st2" d="M212.34,55.06c0,0.76,0,1.38,0.04,1.7c0.03,0.23,0.06,0.38,0.3,0.42c0.12,0.02,0.29,0.04,0.37,0.04
		c0.05,0,0.06,0.04,0.06,0.06c0,0.04-0.04,0.06-0.13,0.06c-0.45,0-0.98-0.03-1.02-0.03c-0.05,0-0.55,0.03-0.8,0.03
		c-0.08,0-0.13-0.02-0.13-0.06c0-0.03,0.02-0.06,0.06-0.06c0.07,0,0.18-0.02,0.25-0.04c0.16-0.04,0.18-0.18,0.21-0.42
		c0.04-0.32,0.05-0.94,0.05-1.7v-1.38c0-1.22,0-1.44-0.02-1.69c-0.02-0.27-0.08-0.39-0.26-0.42c-0.09-0.02-0.19-0.03-0.25-0.03
		c-0.04,0-0.06-0.04-0.06-0.06c0-0.05,0.04-0.06,0.13-0.06c0.27,0,0.78,0.02,0.82,0.02c0.04,0,0.56-0.02,0.81-0.02
		c0.09,0,0.13,0.02,0.13,0.06c0,0.03-0.04,0.06-0.06,0.06c-0.06,0-0.11,0-0.2,0.02c-0.22,0.05-0.27,0.16-0.29,0.43
		c-0.01,0.25-0.01,0.47-0.01,1.69V55.06z"/>
	<path class="st2" d="M217.9,56.31c0.47-1.05,1.53-3.73,1.71-4.29c0.04-0.12,0.07-0.23,0.07-0.3c0-0.06-0.03-0.14-0.11-0.17
		c-0.09-0.03-0.18-0.03-0.28-0.03c-0.05,0-0.09-0.03-0.09-0.06c0-0.05,0.05-0.06,0.18-0.06c0.32,0,0.69,0.02,0.79,0.02
		c0.05,0,0.4-0.02,0.64-0.02c0.08,0,0.13,0.02,0.13,0.06c0,0.04-0.03,0.07-0.09,0.07c-0.06,0-0.24,0-0.39,0.09
		c-0.11,0.07-0.24,0.18-0.45,0.72c-0.09,0.22-0.49,1.16-0.9,2.12c-0.5,1.14-0.86,1.99-1.04,2.38c-0.22,0.47-0.27,0.59-0.35,0.59
		c-0.09,0-0.15-0.1-0.3-0.48l-1.99-4.81c-0.18-0.44-0.3-0.53-0.56-0.59c-0.13-0.03-0.27-0.03-0.31-0.03c-0.05,0-0.06-0.05-0.06-0.07
		c0-0.05,0.08-0.06,0.21-0.06c0.39,0,0.85,0.02,0.95,0.02c0.08,0,0.44-0.02,0.76-0.02c0.15,0,0.22,0.02,0.22,0.06
		c0,0.04-0.03,0.07-0.08,0.07c-0.09,0-0.22,0.01-0.3,0.04c-0.08,0.04-0.09,0.08-0.09,0.14c0,0.1,0.1,0.34,0.22,0.66L217.9,56.31z"/>
	<path class="st2" d="M223.07,53.67c0-1.22,0-1.44-0.02-1.69c-0.02-0.27-0.06-0.4-0.33-0.43c-0.06-0.01-0.2-0.02-0.28-0.02
		c-0.03,0-0.06-0.04-0.06-0.06c0-0.05,0.04-0.06,0.13-0.06c0.37,0,0.9,0.02,0.94,0.02c0.06,0,1.75,0.01,1.94,0
		c0.16-0.01,0.3-0.04,0.37-0.05c0.04-0.01,0.07-0.04,0.11-0.04c0.03,0,0.04,0.04,0.04,0.07c0,0.06-0.05,0.15-0.06,0.37
		c-0.01,0.07-0.03,0.42-0.05,0.52c-0.01,0.04-0.04,0.08-0.07,0.08c-0.05,0-0.06-0.04-0.06-0.1c0-0.06-0.01-0.18-0.05-0.28
		c-0.06-0.13-0.14-0.18-0.58-0.24c-0.14-0.02-1.08-0.03-1.17-0.03c-0.04,0-0.05,0.03-0.05,0.08v2.13c0,0.06,0,0.08,0.05,0.08
		c0.1,0,1.17,0,1.36-0.02c0.19-0.02,0.31-0.03,0.4-0.11c0.06-0.06,0.09-0.1,0.12-0.1c0.03,0,0.05,0.02,0.05,0.06
		c0,0.05-0.05,0.18-0.06,0.43c-0.02,0.16-0.04,0.45-0.04,0.51c0,0.06-0.02,0.15-0.07,0.15c-0.04,0-0.05-0.03-0.05-0.07
		c0-0.07,0-0.16-0.04-0.26c-0.03-0.11-0.1-0.2-0.42-0.24c-0.22-0.03-1.09-0.04-1.23-0.04c-0.05,0-0.06,0.03-0.06,0.06v0.66
		c0,0.27-0.01,1.18,0,1.34c0.02,0.53,0.17,0.63,0.97,0.63c0.21,0,0.6,0,0.81-0.08c0.21-0.09,0.32-0.23,0.37-0.54
		c0.02-0.09,0.04-0.12,0.08-0.12s0.06,0.06,0.06,0.12c0,0.06-0.06,0.59-0.11,0.76c-0.05,0.2-0.14,0.2-0.45,0.2
		c-0.61,0-1.08-0.02-1.41-0.03c-0.34-0.02-0.55-0.02-0.67-0.02c-0.02,0-0.18,0-0.35,0.01c-0.16,0.01-0.34,0.02-0.47,0.02
		c-0.08,0-0.13-0.02-0.13-0.06c0-0.03,0.02-0.06,0.06-0.06c0.07,0,0.18-0.03,0.25-0.04c0.16-0.03,0.17-0.18,0.21-0.42
		c0.05-0.32,0.05-0.94,0.05-1.7V53.67z"/>
	<path class="st2" d="M229.08,53.67c0-1.22,0-1.44-0.02-1.69c-0.02-0.27-0.06-0.4-0.33-0.43c-0.06-0.01-0.2-0.02-0.28-0.02
		c-0.03,0-0.06-0.04-0.06-0.06c0-0.05,0.04-0.06,0.13-0.06c0.37,0,0.91,0.02,0.96,0.02c0.08,0,0.77-0.02,1.02-0.02
		c0.52,0,1.09,0.05,1.51,0.34c0.2,0.15,0.56,0.53,0.56,1.07c0,0.58-0.24,1.14-1,1.79c0.66,0.83,1.23,1.54,1.7,2.03
		c0.43,0.44,0.7,0.52,0.9,0.54c0.16,0.03,0.24,0.03,0.29,0.03c0.05,0,0.07,0.04,0.07,0.06c0,0.05-0.05,0.06-0.19,0.06h-0.51
		c-0.46,0-0.67-0.05-0.87-0.16c-0.35-0.18-0.65-0.56-1.11-1.15c-0.34-0.42-0.7-0.93-0.88-1.14c-0.04-0.04-0.06-0.05-0.11-0.05
		l-1.03-0.02c-0.04,0-0.05,0.02-0.05,0.06v0.18c0,0.76,0,1.37,0.04,1.69c0.03,0.23,0.07,0.38,0.32,0.42
		c0.11,0.02,0.29,0.04,0.36,0.04c0.06,0,0.06,0.04,0.06,0.06c0,0.04-0.04,0.06-0.13,0.06c-0.44,0-0.96-0.03-1-0.03
		c-0.01,0-0.55,0.03-0.8,0.03c-0.08,0-0.13-0.02-0.13-0.06c0-0.03,0.02-0.06,0.06-0.06c0.07,0,0.18-0.02,0.25-0.04
		c0.16-0.04,0.17-0.18,0.21-0.42c0.05-0.32,0.05-0.94,0.05-1.7V53.67z M229.79,54.34c0,0.05,0.02,0.07,0.05,0.1
		c0.12,0.06,0.54,0.12,0.9,0.12c0.19,0,0.42-0.01,0.61-0.14c0.28-0.18,0.49-0.6,0.49-1.2c0-0.98-0.54-1.54-1.4-1.54
		c-0.24,0-0.5,0.03-0.58,0.05c-0.04,0.02-0.06,0.05-0.06,0.09V54.34z"/>
	<path class="st2" d="M235.45,57.23c-0.11-0.06-0.12-0.08-0.12-0.3c0-0.39,0.04-0.7,0.05-0.83c0-0.08,0.02-0.13,0.06-0.13
		c0.05,0,0.07,0.03,0.07,0.09c0,0.06,0,0.18,0.03,0.29c0.13,0.57,0.74,0.78,1.28,0.78c0.8,0,1.22-0.45,1.22-1.04
		c0-0.56-0.3-0.83-1.02-1.37l-0.37-0.28c-0.88-0.66-1.16-1.14-1.16-1.68c0-0.92,0.73-1.48,1.8-1.48c0.32,0,0.65,0.05,0.84,0.09
		c0.16,0.04,0.22,0.04,0.29,0.04s0.08,0.01,0.08,0.06c0,0.04-0.04,0.3-0.04,0.83c0,0.12-0.01,0.18-0.06,0.18
		c-0.05,0-0.06-0.04-0.07-0.1c-0.01-0.09-0.07-0.3-0.12-0.39c-0.06-0.09-0.32-0.39-1.05-0.39c-0.59,0-1.08,0.3-1.08,0.85
		c0,0.5,0.25,0.78,1.05,1.33l0.23,0.16c0.99,0.67,1.33,1.22,1.33,1.89c0,0.46-0.17,0.96-0.76,1.34c-0.34,0.22-0.85,0.28-1.29,0.28
		C236.25,57.44,235.78,57.39,235.45,57.23z"/>
	<path class="st2" d="M242.45,55.06c0,0.76,0,1.38,0.04,1.7c0.03,0.23,0.06,0.38,0.3,0.42c0.12,0.02,0.29,0.04,0.37,0.04
		c0.05,0,0.06,0.04,0.06,0.06c0,0.04-0.04,0.06-0.13,0.06c-0.45,0-0.98-0.03-1.02-0.03c-0.05,0-0.55,0.03-0.8,0.03
		c-0.08,0-0.13-0.02-0.13-0.06c0-0.03,0.02-0.06,0.06-0.06c0.07,0,0.18-0.02,0.25-0.04c0.16-0.04,0.18-0.18,0.21-0.42
		c0.04-0.32,0.05-0.94,0.05-1.7v-1.38c0-1.22,0-1.44-0.02-1.69c-0.02-0.27-0.08-0.39-0.26-0.42c-0.09-0.02-0.19-0.03-0.25-0.03
		c-0.04,0-0.06-0.04-0.06-0.06c0-0.05,0.04-0.06,0.13-0.06c0.27,0,0.78,0.02,0.82,0.02c0.04,0,0.56-0.02,0.81-0.02
		c0.09,0,0.13,0.02,0.13,0.06c0,0.03-0.04,0.06-0.06,0.06c-0.06,0-0.11,0-0.2,0.02c-0.22,0.05-0.27,0.16-0.29,0.43
		c-0.01,0.25-0.01,0.47-0.01,1.69V55.06z"/>
	<path class="st2" d="M248,55.06c0,0.76,0,1.38,0.04,1.7c0.03,0.23,0.06,0.38,0.31,0.42c0.11,0.02,0.3,0.04,0.37,0.04
		c0.05,0,0.06,0.04,0.06,0.06c0,0.04-0.04,0.06-0.13,0.06c-0.44,0-0.96-0.03-1.01-0.03c-0.04,0-0.6,0.03-0.84,0.03
		c-0.09,0-0.13-0.02-0.13-0.06c0-0.03,0.02-0.06,0.07-0.06c0.07,0,0.17-0.02,0.24-0.04c0.17-0.04,0.21-0.19,0.24-0.42
		c0.04-0.32,0.04-0.94,0.04-1.7v-3.3l-1.17,0.02c-0.51,0.01-0.7,0.06-0.82,0.25c-0.09,0.14-0.1,0.19-0.13,0.25
		c-0.02,0.06-0.05,0.07-0.08,0.07c-0.02,0-0.06-0.02-0.06-0.06c0-0.08,0.17-0.78,0.18-0.85c0.02-0.05,0.05-0.15,0.08-0.15
		c0.05,0,0.14,0.06,0.36,0.09c0.23,0.03,0.54,0.04,0.64,0.04h3.06c0.27,0,0.45-0.02,0.58-0.04c0.12-0.02,0.19-0.04,0.23-0.04
		s0.04,0.05,0.04,0.09c0,0.24-0.03,0.8-0.03,0.9c0,0.06-0.04,0.1-0.07,0.1s-0.06-0.03-0.06-0.14L250,52.22
		c-0.03-0.24-0.2-0.42-0.98-0.43L248,51.76V55.06z"/>
	<path class="st2" d="M253.9,55.3c0-0.42-0.06-0.58-0.18-0.8c-0.06-0.12-1.16-1.86-1.44-2.28c-0.19-0.3-0.39-0.47-0.54-0.57
		c-0.12-0.07-0.28-0.11-0.34-0.11c-0.05,0-0.08-0.04-0.08-0.07c0-0.04,0.03-0.06,0.1-0.06c0.16,0,0.77,0.02,0.8,0.02
		c0.05,0,0.39-0.02,0.7-0.02c0.09,0,0.11,0.02,0.11,0.06c0,0.03-0.05,0.06-0.13,0.08c-0.06,0.03-0.1,0.06-0.1,0.13
		c0,0.11,0.06,0.2,0.11,0.3l1.48,2.45c0.17-0.33,1.18-2.01,1.33-2.27c0.1-0.18,0.14-0.3,0.14-0.41c0-0.11-0.04-0.18-0.13-0.2
		c-0.07-0.02-0.12-0.06-0.12-0.09c0-0.03,0.05-0.05,0.13-0.05c0.21,0,0.5,0.02,0.56,0.02c0.06,0,0.64-0.02,0.79-0.02
		c0.05,0,0.1,0.02,0.1,0.05c0,0.04-0.04,0.08-0.1,0.08c-0.09,0-0.25,0.03-0.38,0.1c-0.16,0.09-0.23,0.18-0.41,0.39
		c-0.27,0.31-1.41,2.16-1.58,2.49c-0.14,0.28-0.1,0.53-0.1,0.78v0.67c0,0.13,0,0.46,0.03,0.78c0.02,0.23,0.07,0.38,0.31,0.42
		c0.11,0.02,0.29,0.04,0.37,0.04c0.05,0,0.06,0.04,0.06,0.06c0,0.04-0.05,0.06-0.13,0.06c-0.45,0-0.98-0.03-1.03-0.03
		c-0.04,0-0.55,0.03-0.79,0.03c-0.09,0-0.13-0.02-0.13-0.06c0-0.03,0.02-0.06,0.06-0.06c0.07,0,0.17-0.02,0.24-0.04
		c0.17-0.04,0.22-0.18,0.24-0.42c0.02-0.32,0.02-0.66,0.02-0.78V55.3z"/>
</g>
</svg>
